<svg width="167" height="66" viewBox="0 0 167 66" fill="none" xmlns="http://www.w3.org/2000/svg">
<g id="LOGO SVG" clip-path="url(#clip0_204_3818)">
<path id="Vector" d="M167 0H0V66H167V0Z" fill="#FFC20E"/>
<path id="Vector_2" d="M39.9574 50.5433C39.5045 50.5433 39.0153 50.4255 38.4899 50.19C37.9826 49.9726 37.5569 49.6374 37.2127 49.1845C36.8865 48.7497 36.7416 48.2152 36.7778 47.5811C36.796 47.2007 36.8322 46.8202 36.8865 46.4397C36.959 46.0774 37.104 45.6335 37.3214 45.1081C37.5569 44.5827 37.9192 43.9033 38.4084 43.0699C38.9157 42.2184 39.6132 41.1404 40.501 39.836C41.4068 38.5315 42.5573 36.901 43.9523 34.9443C44.6227 34.0203 45.0937 33.2594 45.3655 32.6615C45.6372 32.0636 45.7731 31.5926 45.7731 31.2484C45.7731 30.9585 45.6916 30.7501 45.5285 30.6233C45.3655 30.4965 45.1571 30.4331 44.9035 30.4331C44.5411 30.4331 44.1063 30.5418 43.599 30.7592C43.1099 30.9766 42.6388 31.2574 42.1859 31.6016C41.3344 32.2357 40.4647 32.9604 39.577 33.7757C38.6892 34.5729 37.8286 35.3972 36.9953 36.2487C36.1619 37.1002 35.3828 37.9246 34.6581 38.7218C34.0602 39.682 33.4986 40.5607 32.9732 41.3578C32.4478 42.1369 32.0673 42.6985 31.8318 43.0427C31.7593 43.1696 31.6416 43.2601 31.4785 43.3145C31.3336 43.3688 31.1886 43.396 31.0437 43.396C30.7901 43.396 30.5636 43.3326 30.3643 43.2058C30.165 43.0609 30.1197 42.8887 30.2284 42.6894C30.2284 42.6894 30.3371 42.4992 30.5545 42.1188C30.7719 41.7383 31.0528 41.231 31.397 40.5969C31.7593 39.9628 32.1398 39.2653 32.5384 38.5043C32.9551 37.7434 33.3537 36.9915 33.7341 36.2487C34.1146 35.4878 34.4407 34.7903 34.7125 34.1562C35.0023 33.5221 35.1926 33.0238 35.2832 32.6615C35.3919 32.1905 35.4462 31.7556 35.4462 31.3571C35.4462 30.9585 35.3738 30.6414 35.2288 30.4059C35.0839 30.1523 34.8302 30.0254 34.4679 30.0254C34.2324 30.0254 33.9334 30.0979 33.5711 30.2428C33.2087 30.3878 32.783 30.6142 32.2938 30.9222C31.4604 31.4658 30.5183 32.1814 29.4675 33.0691C28.4348 33.9388 27.3568 34.9171 26.2336 36.0042C25.1284 37.0731 24.0232 38.1782 22.9181 39.3196C21.831 40.4429 20.8165 41.539 19.8744 42.6079C19.82 42.6623 19.7566 42.6894 19.6841 42.6894C18.9957 43.5772 18.4793 44.157 18.1351 44.4287C17.809 44.7005 17.6459 44.7548 17.6459 44.5918C17.6459 44.2294 18.1442 43.4232 19.1406 42.1731C19.9197 41.2129 20.7531 40.1983 21.6408 39.1294C22.5467 38.0424 23.3891 36.9644 24.1682 35.8954C24.9653 34.8265 25.5994 33.8301 26.0705 32.9061C26.5416 31.9821 26.7771 31.2031 26.7771 30.5689C26.7771 29.7174 26.4238 29.1286 25.7172 28.8025C25.0288 28.4764 24.1501 28.3133 23.0811 28.3133C22.2296 28.3133 21.3147 28.3949 20.3364 28.5579C19.3761 28.7029 18.4159 28.8931 17.4557 29.1286C16.5136 29.346 15.644 29.5816 14.8468 29.8352C14.0496 30.0707 13.4065 30.27 12.9173 30.4331C12.1202 30.7048 11.3864 30.9947 10.7161 31.3027C10.0457 31.6107 9.51126 31.9278 9.11267 32.2539C8.73221 32.5619 8.54198 32.8789 8.54198 33.205C8.54198 33.513 8.75034 33.812 9.16704 34.1018C9.20327 34.1199 9.22139 34.1471 9.22139 34.1834C9.22139 34.2196 9.17609 34.2377 9.0855 34.2377C8.99491 34.2377 8.90433 34.2105 8.81374 34.1562C8.28834 33.7938 8.02563 33.2684 8.02563 32.58C8.02563 32.0727 8.19775 31.5382 8.54198 30.9766C8.88621 30.415 9.42067 29.9348 10.1454 29.5363C11.0693 29.0109 12.102 28.5398 13.2434 28.1231C14.3848 27.6883 15.5624 27.3259 16.7763 27.0361C17.9902 26.7281 19.1859 26.5016 20.3635 26.3567C21.5593 26.1936 22.6644 26.1121 23.679 26.1121C25.0197 26.1121 26.0705 26.248 26.8314 26.5197C27.6105 26.7915 28.1631 27.1629 28.4892 27.6339C28.8153 28.105 28.9783 28.6304 28.9783 29.2101C28.9783 29.9892 28.7428 30.8135 28.2718 31.6832C27.8188 32.5528 27.3115 33.3318 26.7499 34.0203C26.2426 34.6363 25.5904 35.4063 24.7932 36.3303C24.0142 37.2542 23.2442 38.1873 22.4833 39.1294C23.5884 37.9699 24.7117 36.8375 25.8531 35.7324C26.9945 34.6272 28.0996 33.6217 29.1686 32.7159C30.2375 31.81 31.1977 31.0762 32.0492 30.5146C32.9732 29.9167 33.7794 29.491 34.4679 29.2373C35.1745 28.9656 35.7723 28.8297 36.2615 28.8297C36.95 28.8297 37.4391 29.038 37.729 29.4547C38.037 29.8714 38.191 30.3878 38.191 31.0038C38.191 31.656 38.037 32.3626 37.729 33.1235C37.5297 33.6127 37.267 34.1743 36.9409 34.8084C36.6148 35.4244 36.2524 36.0676 35.8539 36.7379C36.796 35.7596 37.7924 34.7812 38.8432 33.8029C39.9121 32.8246 40.9448 31.964 41.9413 31.2212C42.8109 30.5871 43.7258 30.0617 44.6861 29.645C45.6463 29.2283 46.4616 29.0199 47.1319 29.0199C47.5305 29.0199 47.8475 29.1105 48.0831 29.2917C48.3186 29.4547 48.4363 29.7265 48.4363 30.107C48.4363 30.4331 48.3276 30.8498 48.1102 31.3571C47.8928 31.8643 47.5486 32.4713 47.0775 33.1778C45.2296 35.9136 43.7258 38.2688 42.5663 40.2436C41.4249 42.2003 40.5825 43.8308 40.039 45.1353C39.4954 46.4397 39.1874 47.4815 39.115 48.2605C39.0969 48.3511 39.0878 48.4417 39.0878 48.5323C39.0878 48.6229 39.0878 48.7135 39.0878 48.804C39.0878 49.3113 39.1693 49.6646 39.3324 49.8639C39.5136 50.0813 39.7129 50.19 39.9303 50.19C40.202 50.19 40.4557 50.0904 40.6912 49.8911C40.7637 49.8549 40.809 49.8367 40.8271 49.8367C40.9177 49.8367 40.9901 49.882 41.0445 49.9726C41.0988 50.0632 41.0807 50.1538 40.9901 50.2444C40.7365 50.4437 40.3923 50.5433 39.9574 50.5433ZM46.703 44.5918C45.9059 44.5918 45.2355 44.4015 44.692 44.0211C44.1666 43.6225 43.9039 43.0518 43.9039 42.309C43.9039 41.5118 44.0941 40.769 44.4746 40.0806C44.8551 39.3921 45.3623 38.7942 45.9965 38.2869C46.6306 37.7615 47.319 37.3539 48.0618 37.064C48.8228 36.7741 49.5746 36.6292 50.3174 36.6292C51.0602 36.6292 51.6128 36.7651 51.9752 37.0368C52.3375 37.2905 52.5187 37.6075 52.5187 37.988C52.5187 38.3503 52.3466 38.7399 52.0023 39.1566C51.6762 39.5551 51.1961 39.9084 50.562 40.2164C50.1634 40.3976 49.7014 40.5607 49.176 40.7056C48.6688 40.8324 48.2249 40.8958 47.8444 40.8958C47.5545 40.8958 47.4096 40.8505 47.4096 40.76C47.4096 40.6875 47.5364 40.6512 47.7901 40.6512C48.0256 40.6512 48.3879 40.5878 48.8771 40.461C49.3844 40.3161 49.8736 40.1258 50.3446 39.8903C50.87 39.6004 51.2414 39.3106 51.4588 39.0207C51.6762 38.7308 51.7849 38.4681 51.7849 38.2326C51.7849 38.0152 51.6944 37.834 51.5132 37.6891C51.3501 37.5441 51.1146 37.4717 50.8066 37.4717C50.5167 37.4717 50.1906 37.5532 49.8283 37.7162C49.3029 37.9518 48.7593 38.3413 48.1977 38.8848C47.6542 39.4102 47.2013 39.99 46.8389 40.6241C46.4766 41.2582 46.2954 41.8651 46.2954 42.4449C46.2954 42.8434 46.4041 43.1786 46.6215 43.4504C46.857 43.7221 47.2013 43.858 47.6542 43.858C48.1252 43.858 48.6688 43.7131 49.2847 43.4232C49.9007 43.1152 50.5258 42.7438 51.1599 42.309C51.794 41.856 52.3828 41.4031 52.9263 40.9502C53.4699 40.4972 53.9047 40.1168 54.2308 39.8088C54.3395 39.7001 54.421 39.6457 54.4754 39.6457C54.5297 39.6457 54.5569 39.691 54.5569 39.7816C54.5569 39.9084 54.5025 40.0171 54.3938 40.1077C53.7054 40.7418 52.9535 41.4031 52.1382 42.0916C51.3411 42.78 50.4805 43.3688 49.5565 43.858C48.6506 44.3291 47.6995 44.5737 46.703 44.5918ZM57.379 44.3472C56.5999 44.3472 56.0745 44.2022 55.8027 43.9124C55.531 43.6044 55.3951 43.2692 55.3951 42.9069C55.3951 42.4358 55.5763 41.9376 55.9386 41.4122C56.156 41.1042 56.4006 40.76 56.6724 40.3795C56.9441 39.9809 57.1978 39.6095 57.4333 39.2653C57.6688 38.921 57.8319 38.6765 57.9225 38.5315C58.0493 38.3503 58.1218 38.2326 58.1399 38.1782C58.1761 38.1058 58.1942 38.0333 58.1942 37.9608C58.1942 37.8521 58.1218 37.7525 57.9768 37.6619C57.85 37.5532 57.6326 37.4988 57.3246 37.4988C57.234 37.4988 57.1525 37.5079 57.08 37.526C57.0257 37.526 56.9623 37.526 56.8898 37.526C56.7448 37.526 56.6633 37.5169 56.6452 37.4988L56.5637 37.6075C56.0564 38.2779 55.5129 38.9392 54.9331 39.5914C54.3534 40.2255 53.7192 40.8143 53.0308 41.3578C52.9583 41.4122 52.904 41.4394 52.8677 41.4394C52.7953 41.4394 52.759 41.4031 52.759 41.3306C52.759 41.1857 52.8677 41.0227 53.0851 40.8415C53.6468 40.3704 54.1994 39.845 54.7429 39.2653C55.2864 38.6674 55.7756 38.0424 56.2104 37.3901C56.0473 37.2814 55.9658 37.064 55.9658 36.7379C55.9658 36.2487 56.1198 35.7233 56.4278 35.1617C56.6452 34.7812 56.8807 34.5004 57.1344 34.3192C57.4061 34.1199 57.6417 34.0203 57.8409 34.0203C58.2214 34.0203 58.4116 34.2468 58.4116 34.6997C58.4116 34.9896 58.3029 35.3519 58.0855 35.7867C57.9949 36.0042 57.8138 36.285 57.542 36.6292C57.2884 36.9553 57.0347 37.1908 56.7811 37.3358C57.1615 37.209 57.6417 37.1274 58.2214 37.0912C58.8193 37.0368 59.3175 37.0097 59.7161 37.0097C59.9516 37.0097 60.2415 37.0821 60.5857 37.2271C60.9299 37.3539 61.1021 37.5894 61.1021 37.9336C61.1021 38.1692 60.9934 38.4228 60.776 38.6946C60.7216 38.767 60.5767 38.9392 60.3411 39.2109C60.1056 39.4827 59.8429 39.8088 59.553 40.1893C59.2813 40.5697 59.0276 40.9502 58.7921 41.3306C58.5566 41.6749 58.3663 41.9919 58.2214 42.2818C58.0946 42.5717 58.0312 42.8163 58.0312 43.0156C58.0312 43.3054 58.1942 43.4504 58.5203 43.4504C58.9008 43.4504 59.4081 43.2692 60.0422 42.9069C60.6763 42.5445 61.3557 42.0825 62.0804 41.5209C62.8232 40.9411 63.5026 40.3433 64.1186 39.7273C64.1911 39.6548 64.2545 39.6186 64.3088 39.6186C64.3813 39.6186 64.4175 39.6639 64.4175 39.7544C64.4175 39.8631 64.3722 39.9628 64.2817 40.0534C63.6475 40.6875 62.941 41.3397 62.1619 42.01C61.401 42.6623 60.6038 43.2148 59.7704 43.6678C58.9552 44.1207 58.158 44.3472 57.379 44.3472ZM64.6167 44.3472C64.055 44.3472 63.6202 44.1751 63.3122 43.8308C63.0042 43.4685 62.8502 43.0065 62.8502 42.4449C62.8502 41.9195 62.9861 41.3397 63.2579 40.7056C63.5478 40.0715 64.0007 39.4283 64.6167 38.7761C65.2508 38.0876 66.0389 37.5351 66.981 37.1184C67.9231 36.6836 68.8199 36.4661 69.6714 36.4661C70.3599 36.4661 70.9487 36.6201 71.4379 36.9281C71.927 37.218 72.2531 37.5894 72.4162 38.0424C72.6155 38.0424 72.8601 38.0967 73.1499 38.2054C73.4579 38.3141 73.6119 38.5134 73.6119 38.8033C73.6119 39.0026 73.5123 39.229 73.313 39.4827C73.1862 39.6639 72.9597 39.9356 72.6336 40.298C72.3256 40.6603 72.0357 41.0498 71.764 41.4665C71.5466 41.7926 71.3744 42.1006 71.2476 42.3905C71.1208 42.6623 71.0574 42.8978 71.0574 43.0971C71.0574 43.3688 71.1933 43.5047 71.465 43.5047C71.773 43.5047 72.235 43.3326 72.851 42.9884C73.5214 42.6079 74.1645 42.1731 74.7805 41.6839C75.3965 41.1948 75.8766 40.8052 76.2208 40.5154C76.3114 40.4429 76.3748 40.4067 76.4111 40.4067C76.4835 40.4067 76.5198 40.452 76.5198 40.5425C76.5198 40.6512 76.4745 40.7509 76.3839 40.8415C76.2208 40.9864 75.9038 41.2582 75.4327 41.6568C74.9617 42.0553 74.4182 42.472 73.8022 42.9069C73.2043 43.3417 72.6155 43.695 72.0357 43.9667C71.7459 44.0935 71.4741 44.1932 71.2205 44.2657C70.9849 44.32 70.7675 44.3472 70.5682 44.3472C70.0791 44.3472 69.7077 44.2113 69.454 43.9395C69.2004 43.6497 69.0735 43.2783 69.0735 42.8253C69.0735 42.6442 69.1007 42.4539 69.1551 42.2546C69.2094 42.0553 69.2728 41.856 69.3453 41.6568L69.5355 41.1948C69.0645 41.7745 68.5934 42.2637 68.1224 42.6623C67.6513 43.0427 67.1803 43.3779 66.7092 43.6678C66.3107 43.9033 65.9302 44.0754 65.5678 44.1841C65.2236 44.2928 64.9066 44.3472 64.6167 44.3472ZM65.4591 43.6406C65.7852 43.6406 66.2563 43.4504 66.8723 43.0699C67.4883 42.6713 68.2039 42.0644 69.0192 41.2491C69.1279 41.1404 69.3272 40.9502 69.6171 40.6784C69.9251 40.3885 70.2512 40.0715 70.5954 39.7273C70.9396 39.3649 71.2295 39.0116 71.465 38.6674C71.7187 38.3051 71.8455 38.0061 71.8455 37.7706C71.8455 37.4264 71.5466 37.2542 70.9487 37.2542C70.4233 37.2542 69.7892 37.4626 69.0464 37.8793C68.3217 38.2779 67.6242 38.8757 66.9538 39.6729C66.2654 40.4882 65.7581 41.1948 65.432 41.7926C65.124 42.3724 64.97 42.8163 64.97 43.1243C64.97 43.4685 65.133 43.6406 65.4591 43.6406ZM83.0743 45.0266C82.9293 45.0266 82.8569 44.9451 82.8569 44.782C82.8569 44.7458 82.8659 44.7005 82.884 44.6461C82.884 44.6099 82.8931 44.5646 82.9112 44.5102C83.038 44.0211 83.3642 43.3054 83.8896 42.3633C84.4331 41.4031 85.0672 40.3614 85.7919 39.2381C85.0672 39.0569 84.4693 38.7852 83.9983 38.4228C83.4547 37.988 83.183 37.4988 83.183 36.9553C83.183 36.5386 83.346 36.1853 83.6722 35.8954C83.7446 35.823 83.808 35.7867 83.8624 35.7867C83.8986 35.7867 83.9167 35.8139 83.9167 35.8683C83.9167 35.977 83.8714 36.0766 83.7809 36.1672C83.654 36.3484 83.5906 36.5658 83.5906 36.8194C83.5906 37.0368 83.6359 37.2542 83.7265 37.4717C83.8352 37.6891 84.0073 37.8884 84.2428 38.0695C84.7501 38.4681 85.3571 38.7218 86.0636 38.8305C86.7521 37.7978 87.4587 36.7741 88.1834 35.7596C88.9262 34.7269 89.6237 33.7848 90.2759 32.9333C90.9463 32.0817 91.5079 31.4023 91.9608 30.8951C92.4138 30.3697 92.7036 30.107 92.8305 30.107C92.9573 30.107 93.0569 30.1794 93.1294 30.3244C93.2019 30.4512 93.2381 30.569 93.2381 30.6777C93.2381 30.6777 93.0479 30.9222 92.6674 31.4114C92.2869 31.8825 91.7887 32.5166 91.1727 33.3137C90.5567 34.1109 89.8864 34.9986 89.1617 35.977C88.437 36.9553 87.7214 37.9518 87.0148 38.9663C87.975 39.0207 89.0077 38.9392 90.1129 38.7218C91.218 38.5043 92.3051 38.2145 93.374 37.8521C94.461 37.4898 95.4484 37.1002 96.3362 36.6836C97.242 36.2669 97.9577 35.8864 98.4831 35.5422C99.5882 34.7993 100.394 34.0384 100.902 33.2594C101.427 32.4622 101.69 31.7194 101.69 31.0309C101.69 30.1432 101.291 29.4094 100.494 28.8297C99.7151 28.2499 98.5918 27.9601 97.1243 27.9601C96.7076 27.9601 96.2546 27.9872 95.7655 28.0416C94.9864 28.1322 94.1077 28.2862 93.1294 28.5036C92.1511 28.721 91.1727 28.9927 90.1944 29.3189C89.2161 29.6268 88.3192 29.962 87.504 30.3244C86.6887 30.6867 86.0455 31.0672 85.5745 31.4658C85.2665 31.7013 85.1668 31.9096 85.2755 32.0908C85.3118 32.1452 85.3299 32.1995 85.3299 32.2539C85.3299 32.2901 85.3027 32.3082 85.2484 32.3082C85.194 32.2901 85.1397 32.2629 85.0853 32.2267C84.7954 32.0455 84.578 31.81 84.4331 31.5201C84.2881 31.2302 84.2157 30.9675 84.2157 30.732C84.2157 30.6414 84.2247 30.5599 84.2428 30.4874C84.2791 30.415 84.3063 30.3515 84.3244 30.2972C84.6867 29.7899 85.2937 29.3098 86.1452 28.8569C87.0148 28.3858 88.0203 27.9601 89.1617 27.5796C90.3212 27.1991 91.526 26.8821 92.7761 26.6284C94.0262 26.3567 95.2129 26.1664 96.3362 26.0577C96.5536 26.0396 96.7619 26.0306 96.9612 26.0306C97.1786 26.0124 97.3779 26.0034 97.5591 26.0034C99.4433 26.0034 100.82 26.402 101.69 27.1991C102.578 27.9782 103.021 28.9293 103.021 30.0526C103.021 31.0853 102.65 32.1633 101.907 33.2866C101.183 34.4098 100.123 35.3791 98.7277 36.1944C98.166 36.5205 97.4594 36.8738 96.6079 37.2542C95.7564 37.6166 94.8234 37.9699 93.8088 38.3141C92.7942 38.6402 91.7615 38.912 90.7107 39.1294C89.6599 39.3468 88.6544 39.4555 87.6942 39.4555C87.513 39.4555 87.3409 39.4555 87.1779 39.4555C87.0148 39.4374 86.8517 39.4193 86.6887 39.4012C86.0002 40.3976 85.3752 41.3578 84.8135 42.2818C84.27 43.1877 83.8714 43.9577 83.6178 44.5918C83.5816 44.7186 83.5 44.8182 83.3732 44.8907C83.2645 44.9813 83.1649 45.0266 83.0743 45.0266ZM99.4359 44.3472C98.8743 44.3472 98.4395 44.1751 98.1315 43.8308C97.8235 43.4685 97.6695 43.0065 97.6695 42.4449C97.6695 41.9195 97.8054 41.3397 98.0771 40.7056C98.367 40.0715 98.8199 39.4283 99.4359 38.7761C100.07 38.0876 100.858 37.5351 101.8 37.1184C102.742 36.6836 103.639 36.4661 104.491 36.4661C105.179 36.4661 105.768 36.6201 106.257 36.9281C106.746 37.218 107.072 37.5894 107.235 38.0424C107.435 38.0424 107.679 38.0967 107.969 38.2054C108.277 38.3141 108.431 38.5134 108.431 38.8033C108.431 39.0026 108.332 39.229 108.132 39.4827C108.005 39.6639 107.779 39.9356 107.453 40.298C107.145 40.6603 106.855 41.0498 106.583 41.4665C106.366 41.7926 106.194 42.1006 106.067 42.3905C105.94 42.6623 105.877 42.8978 105.877 43.0971C105.877 43.3688 106.013 43.5047 106.284 43.5047C106.592 43.5047 107.054 43.3326 107.67 42.9884C108.341 42.6079 108.984 42.1731 109.6 41.6839C110.216 41.1948 110.696 40.8052 111.04 40.5154C111.131 40.4429 111.194 40.4067 111.23 40.4067C111.303 40.4067 111.339 40.452 111.339 40.5425C111.339 40.6512 111.294 40.7509 111.203 40.8415C111.04 40.9864 110.723 41.2582 110.252 41.6568C109.781 42.0553 109.237 42.472 108.621 42.9069C108.024 43.3417 107.435 43.695 106.855 43.9667C106.565 44.0935 106.293 44.1932 106.04 44.2657C105.804 44.32 105.587 44.3472 105.387 44.3472C104.898 44.3472 104.527 44.2113 104.273 43.9395C104.02 43.6497 103.893 43.2783 103.893 42.8253C103.893 42.6442 103.92 42.4539 103.974 42.2546C104.029 42.0553 104.092 41.856 104.165 41.6568L104.355 41.1948C103.884 41.7745 103.413 42.2637 102.942 42.6623C102.471 43.0427 102 43.3779 101.528 43.6678C101.13 43.9033 100.749 44.0754 100.387 44.1841C100.043 44.2928 99.7258 44.3472 99.4359 44.3472ZM100.278 43.6406C100.605 43.6406 101.076 43.4504 101.692 43.0699C102.308 42.6713 103.023 42.0644 103.838 41.2491C103.947 41.1404 104.146 40.9502 104.436 40.6784C104.744 40.3885 105.07 40.0715 105.415 39.7273C105.759 39.3649 106.049 39.0116 106.284 38.6674C106.538 38.3051 106.665 38.0061 106.665 37.7706C106.665 37.4264 106.366 37.2542 105.768 37.2542C105.243 37.2542 104.608 37.4626 103.866 37.8793C103.141 38.2779 102.443 38.8757 101.773 39.6729C101.085 40.4882 100.577 41.1948 100.251 41.7926C99.9432 42.3724 99.7892 42.8163 99.7892 43.1243C99.7892 43.4685 99.9523 43.6406 100.278 43.6406ZM114.942 44.3472C114.163 44.3472 113.638 44.2022 113.366 43.9124C113.094 43.6044 112.958 43.2692 112.958 42.9069C112.958 42.4358 113.14 41.9376 113.502 41.4122C113.719 41.1042 113.964 40.76 114.236 40.3795C114.507 39.9809 114.761 39.6095 114.997 39.2653C115.232 38.921 115.395 38.6765 115.486 38.5315C115.613 38.3503 115.685 38.2326 115.703 38.1782C115.739 38.1058 115.757 38.0333 115.757 37.9608C115.757 37.8521 115.685 37.7525 115.54 37.6619C115.413 37.5532 115.196 37.4988 114.888 37.4988C114.797 37.4988 114.716 37.5079 114.643 37.526C114.589 37.526 114.525 37.526 114.453 37.526C114.308 37.526 114.227 37.5169 114.208 37.4988L114.127 37.6075C113.62 38.2779 113.076 38.9392 112.496 39.5914C111.917 40.2255 111.282 40.8143 110.594 41.3578C110.522 41.4122 110.467 41.4394 110.431 41.4394C110.358 41.4394 110.322 41.4031 110.322 41.3306C110.322 41.1857 110.431 41.0227 110.648 40.8415C111.21 40.3704 111.763 39.845 112.306 39.2653C112.85 38.6674 113.339 38.0424 113.774 37.3901C113.611 37.2814 113.529 37.064 113.529 36.7379C113.529 36.2487 113.683 35.7233 113.991 35.1617C114.208 34.7812 114.444 34.5004 114.698 34.3192C114.969 34.1199 115.205 34.0203 115.404 34.0203C115.785 34.0203 115.975 34.2468 115.975 34.6997C115.975 34.9896 115.866 35.3519 115.649 35.7867C115.558 36.0042 115.377 36.285 115.105 36.6292C114.852 36.9553 114.598 37.1908 114.344 37.3358C114.725 37.209 115.205 37.1274 115.785 37.0912C116.383 37.0368 116.881 37.0097 117.279 37.0097C117.515 37.0097 117.805 37.0821 118.149 37.2271C118.493 37.3539 118.665 37.5894 118.665 37.9336C118.665 38.1692 118.557 38.4228 118.339 38.6946C118.285 38.767 118.14 38.9392 117.904 39.2109C117.669 39.4827 117.406 39.8088 117.116 40.1893C116.844 40.5697 116.591 40.9502 116.355 41.3306C116.12 41.6749 115.93 41.9919 115.785 42.2818C115.658 42.5717 115.594 42.8163 115.594 43.0156C115.594 43.3054 115.757 43.4504 116.084 43.4504C116.464 43.4504 116.971 43.2692 117.605 42.9069C118.24 42.5445 118.919 42.0825 119.644 41.5209C120.386 40.9411 121.066 40.3433 121.682 39.7273C121.754 39.6548 121.818 39.6186 121.872 39.6186C121.945 39.6186 121.981 39.6639 121.981 39.7544C121.981 39.8631 121.935 39.9628 121.845 40.0534C121.211 40.6875 120.504 41.3397 119.725 42.01C118.964 42.6623 118.167 43.2148 117.334 43.6678C116.518 44.1207 115.721 44.3472 114.942 44.3472ZM126.745 36.0042C126.492 36.0042 126.302 35.9226 126.175 35.7596C126.048 35.5965 125.985 35.4244 125.985 35.2432C125.985 34.8809 126.157 34.5276 126.501 34.1834C126.845 33.821 127.207 33.6398 127.588 33.6398C127.842 33.6398 128.032 33.7214 128.159 33.8844C128.285 34.0475 128.349 34.2196 128.349 34.4008C128.349 34.7812 128.177 35.1436 127.833 35.4878C127.506 35.832 127.144 36.0042 126.745 36.0042ZM122.588 44.3472C121.845 44.3472 121.337 44.1932 121.066 43.8852C120.812 43.5591 120.685 43.1967 120.685 42.7982C120.685 42.472 120.74 42.164 120.848 41.8742C120.957 41.5662 121.048 41.3488 121.12 41.2219C121.229 41.0408 121.374 40.8324 121.555 40.5969C121.754 40.3614 121.972 40.1077 122.207 39.836C121.845 40.144 121.501 40.4429 121.174 40.7328C120.866 41.0227 120.613 41.2401 120.413 41.385C120.359 41.4394 120.305 41.4665 120.25 41.4665C120.178 41.4665 120.142 41.4212 120.142 41.3306C120.142 41.1857 120.241 41.0408 120.441 40.8958C120.912 40.4972 121.365 40.0624 121.799 39.5914C122.252 39.1203 122.678 38.6855 123.077 38.2869C123.475 37.8702 123.829 37.5804 124.137 37.4173C124.463 37.2361 124.725 37.1184 124.925 37.064C125.124 37.0097 125.287 36.9825 125.414 36.9825C125.613 36.9825 125.758 37.0187 125.849 37.0912C125.939 37.1455 125.957 37.209 125.903 37.2814C125.595 37.5894 125.287 37.988 124.979 38.4772C124.689 38.9482 124.417 39.4464 124.164 39.9718C123.91 40.4972 123.702 40.9955 123.539 41.4665C123.394 41.9376 123.321 42.3362 123.321 42.6623C123.321 43.1152 123.502 43.3417 123.865 43.3417C124.209 43.3417 124.653 43.1877 125.196 42.8797C125.758 42.5536 126.338 42.1459 126.936 41.6568C127.552 41.1676 128.122 40.6875 128.648 40.2164C128.72 40.144 128.784 40.1077 128.838 40.1077C128.929 40.1077 128.974 40.153 128.974 40.2436C128.992 40.3342 128.974 40.3976 128.92 40.4338C128.322 40.9955 127.642 41.5843 126.881 42.2003C126.139 42.7982 125.387 43.3054 124.626 43.7221C123.883 44.1388 123.204 44.3472 122.588 44.3472ZM129.311 44.32C129.111 44.32 128.957 44.2928 128.849 44.2385C129.102 43.8761 129.338 43.396 129.555 42.7982C129.791 42.2003 129.999 41.5933 130.18 40.9774C130.361 40.3614 130.497 39.836 130.588 39.4012C130.697 38.9482 130.751 38.7036 130.751 38.6674L129.61 39.8088C129.374 40.0443 129.12 40.2889 128.849 40.5425C128.577 40.7962 128.305 41.0317 128.033 41.2491C127.961 41.3035 127.897 41.3578 127.843 41.4122C127.771 41.4484 127.707 41.4665 127.653 41.4665C127.58 41.4665 127.544 41.4303 127.544 41.3578C127.544 41.2491 127.626 41.1223 127.789 40.9774C128.296 40.5244 128.849 40.0171 129.447 39.4555C130.063 38.8939 130.515 38.3051 130.805 37.6891C130.896 37.4717 130.941 37.2724 130.941 37.0912C130.941 36.8557 130.896 36.7107 130.805 36.6564C130.733 36.602 130.697 36.5296 130.697 36.439C130.697 36.2759 130.778 36.1944 130.941 36.1944C131.05 36.1944 131.186 36.2487 131.349 36.3574C131.53 36.448 131.666 36.5386 131.756 36.6292C131.974 36.8466 132.11 37.1184 132.164 37.4445C132.237 37.7706 132.273 38.1058 132.273 38.45C132.273 38.9573 132.218 39.528 132.11 40.1621C132.019 40.7962 131.883 41.4122 131.702 42.01C131.521 42.5898 131.294 43.088 131.023 43.5047L130.968 43.5863C131.077 43.5138 131.168 43.4504 131.24 43.396C131.331 43.3236 131.394 43.2692 131.43 43.233C131.974 42.6894 132.445 42.0825 132.844 41.4122C133.242 40.7237 133.614 40.0262 133.958 39.3196C134.302 38.5949 134.655 37.9155 135.018 37.2814C135.38 36.6473 135.797 36.1038 136.268 35.6509C136.539 35.3791 136.893 35.2432 137.328 35.2432C137.563 35.2432 137.799 35.3157 138.034 35.4606C138.27 35.5875 138.442 35.7867 138.55 36.0585C138.587 36.131 138.569 36.1763 138.496 36.1944C138.442 36.2125 138.396 36.1853 138.36 36.1129C138.252 35.8411 138.079 35.7052 137.844 35.7052C137.608 35.7052 137.3 35.8773 136.92 36.2216C136.268 36.8557 135.679 37.5985 135.153 38.45C134.628 39.2834 134.094 40.1349 133.55 41.0045C133.025 41.856 132.409 42.6351 131.702 43.3417C131.412 43.6315 131.032 43.8671 130.561 44.0482C130.09 44.2294 129.673 44.32 129.311 44.32ZM137.652 44.3472C137.091 44.3472 136.656 44.1751 136.348 43.8308C136.04 43.4685 135.886 43.0065 135.886 42.4449C135.886 41.9195 136.022 41.3397 136.293 40.7056C136.583 40.0715 137.036 39.4283 137.652 38.7761C138.286 38.0876 139.074 37.5351 140.016 37.1184C140.959 36.6836 141.855 36.4661 142.707 36.4661C143.395 36.4661 143.984 36.6201 144.473 36.9281C144.963 37.218 145.289 37.5894 145.452 38.0424C145.651 38.0424 145.896 38.0967 146.185 38.2054C146.493 38.3141 146.647 38.5134 146.647 38.8033C146.647 39.0026 146.548 39.229 146.349 39.4827C146.222 39.6639 145.995 39.9356 145.669 40.298C145.361 40.6603 145.071 41.0498 144.799 41.4665C144.582 41.7926 144.41 42.1006 144.283 42.3905C144.156 42.6623 144.093 42.8978 144.093 43.0971C144.093 43.3688 144.229 43.5047 144.501 43.5047C144.809 43.5047 145.271 43.3326 145.887 42.9884C146.557 42.6079 147.2 42.1731 147.816 41.6839C148.432 41.1948 148.912 40.8052 149.256 40.5154C149.347 40.4429 149.41 40.4067 149.447 40.4067C149.519 40.4067 149.555 40.452 149.555 40.5425C149.555 40.6512 149.51 40.7509 149.419 40.8415C149.256 40.9864 148.939 41.2582 148.468 41.6568C147.997 42.0553 147.454 42.472 146.838 42.9069C146.24 43.3417 145.651 43.695 145.071 43.9667C144.781 44.0935 144.51 44.1932 144.256 44.2657C144.02 44.32 143.803 44.3472 143.604 44.3472C143.115 44.3472 142.743 44.2113 142.49 43.9395C142.236 43.6497 142.109 43.2783 142.109 42.8253C142.109 42.6442 142.136 42.4539 142.191 42.2546C142.245 42.0553 142.308 41.856 142.381 41.6568L142.571 41.1948C142.1 41.7745 141.629 42.2637 141.158 42.6623C140.687 43.0427 140.216 43.3779 139.745 43.6678C139.346 43.9033 138.966 44.0754 138.603 44.1841C138.259 44.2928 137.942 44.3472 137.652 44.3472ZM138.495 43.6406C138.821 43.6406 139.292 43.4504 139.908 43.0699C140.524 42.6713 141.239 42.0644 142.055 41.2491C142.163 41.1404 142.363 40.9502 142.653 40.6784C142.961 40.3885 143.287 40.0715 143.631 39.7273C143.975 39.3649 144.265 39.0116 144.501 38.6674C144.754 38.3051 144.881 38.0061 144.881 37.7706C144.881 37.4264 144.582 37.2542 143.984 37.2542C143.459 37.2542 142.825 37.4626 142.082 37.8793C141.357 38.2779 140.66 38.8757 139.989 39.6729C139.301 40.4882 138.794 41.1948 138.467 41.7926C138.159 42.3724 138.005 42.8163 138.005 43.1243C138.005 43.4685 138.169 43.6406 138.495 43.6406ZM153.158 44.3472C152.379 44.3472 151.854 44.2022 151.582 43.9124C151.31 43.6044 151.175 43.2692 151.175 42.9069C151.175 42.4358 151.356 41.9376 151.718 41.4122C151.936 41.1042 152.18 40.76 152.452 40.3795C152.724 39.9809 152.977 39.6095 153.213 39.2653C153.448 38.921 153.611 38.6765 153.702 38.5315C153.829 38.3503 153.901 38.2326 153.919 38.1782C153.956 38.1058 153.974 38.0333 153.974 37.9608C153.974 37.8521 153.901 37.7525 153.756 37.6619C153.629 37.5532 153.412 37.4988 153.104 37.4988C153.013 37.4988 152.932 37.5079 152.859 37.526C152.805 37.526 152.742 37.526 152.669 37.526C152.524 37.526 152.443 37.5169 152.425 37.4988L152.343 37.6075C151.836 38.2779 151.292 38.9392 150.713 39.5914C150.133 40.2255 149.499 40.8143 148.81 41.3578C148.738 41.4122 148.683 41.4394 148.647 41.4394C148.575 41.4394 148.539 41.4031 148.539 41.3306C148.539 41.1857 148.647 41.0227 148.865 40.8415C149.426 40.3704 149.979 39.845 150.522 39.2653C151.066 38.6674 151.555 38.0424 151.99 37.3901C151.827 37.2814 151.745 37.064 151.745 36.7379C151.745 36.2487 151.899 35.7233 152.207 35.1617C152.425 34.7812 152.66 34.5004 152.914 34.3192C153.186 34.1199 153.421 34.0203 153.62 34.0203C154.001 34.0203 154.191 34.2468 154.191 34.6997C154.191 34.9896 154.082 35.3519 153.865 35.7867C153.774 36.0042 153.593 36.285 153.321 36.6292C153.068 36.9553 152.814 37.1908 152.561 37.3358C152.941 37.209 153.421 37.1274 154.001 37.0912C154.599 37.0368 155.097 37.0097 155.496 37.0097C155.731 37.0097 156.021 37.0821 156.365 37.2271C156.709 37.3539 156.882 37.5894 156.882 37.9336C156.882 38.1692 156.773 38.4228 156.555 38.6946C156.501 38.767 156.356 38.9392 156.121 39.2109C155.885 39.4827 155.622 39.8088 155.333 40.1893C155.061 40.5697 154.807 40.9502 154.572 41.3306C154.336 41.6749 154.146 41.9919 154.001 42.2818C153.874 42.5717 153.811 42.8163 153.811 43.0156C153.811 43.3054 153.974 43.4504 154.3 43.4504C154.68 43.4504 155.188 43.2692 155.822 42.9069C156.456 42.5445 157.135 42.0825 157.86 41.5209C158.603 40.9411 159.282 40.3433 159.898 39.7273C159.971 39.6548 160.034 39.6186 160.088 39.6186C160.161 39.6186 160.197 39.6639 160.197 39.7544C160.197 39.8631 160.152 39.9628 160.061 40.0534C159.427 40.6875 158.72 41.3397 157.941 42.01C157.18 42.6623 156.383 43.2148 155.55 43.6678C154.735 44.1207 153.937 44.3472 153.158 44.3472Z" fill="#134379"/>
<g id="Mask group">
<mask id="mask0_204_3818" style="mask-type:luminance" maskUnits="userSpaceOnUse" x="54" y="48" width="105" height="8">
<g id="Group">
<path id="Vector_3" d="M54.87 48.02H158.913V56H54.87V48.02Z" fill="white"/>
</g>
</mask>
<g mask="url(#mask0_204_3818)">
<path id="Vector_4" d="M54.87 48.2692H158.913V47.7708H54.87V48.2692Z" fill="#134379"/>
</g>
</g>
<path id="Vector_5" d="M56.0665 54.02H55.4508V49.4722H56.0665V54.02ZM60.9144 49.4722V54.02H60.6065C60.5579 54.02 60.5166 54.0116 60.4828 53.9946C60.451 53.9777 60.4193 53.9491 60.3876 53.9089L57.7566 50.4814C57.7608 50.5343 57.764 50.5861 57.7661 50.6369C57.7682 50.6877 57.7693 50.7353 57.7693 50.7797V54.02H57.2298V49.4722H57.5471C57.5746 49.4722 57.5979 49.4743 57.6169 49.4785C57.636 49.4806 57.6529 49.4859 57.6677 49.4944C57.6825 49.5007 57.6973 49.5113 57.7122 49.5261C57.727 49.5388 57.7428 49.5557 57.7598 49.5769L60.3907 53.0013C60.3865 52.9463 60.3823 52.8934 60.378 52.8426C60.3759 52.7897 60.3749 52.74 60.3749 52.6934V49.4722H60.9144ZM64.4033 50.1831C64.3843 50.2148 64.3631 50.2391 64.3399 50.2561C64.3187 50.2709 64.2923 50.2783 64.2605 50.2783C64.2245 50.2783 64.1822 50.2603 64.1336 50.2243C64.0849 50.1884 64.0236 50.1492 63.9495 50.1069C63.8776 50.0625 63.7898 50.0223 63.6861 49.9863C63.5845 49.9503 63.4608 49.9323 63.3148 49.9323C63.1772 49.9323 63.0556 49.9514 62.9498 49.9895C62.8461 50.0254 62.7583 50.0752 62.6864 50.1386C62.6166 50.2021 62.5637 50.2772 62.5277 50.364C62.4917 50.4486 62.4737 50.5406 62.4737 50.6401C62.4737 50.767 62.5044 50.8728 62.5658 50.9574C62.6293 51.0399 62.7118 51.1108 62.8133 51.1701C62.917 51.2293 63.0334 51.2811 63.1624 51.3256C63.2936 51.3679 63.4269 51.4123 63.5623 51.4589C63.6998 51.5054 63.8331 51.5583 63.9622 51.6176C64.0934 51.6747 64.2097 51.7477 64.3113 51.8365C64.415 51.9254 64.4975 52.0344 64.5588 52.1634C64.6223 52.2925 64.6541 52.4512 64.6541 52.6395C64.6541 52.8384 64.6202 53.0256 64.5525 53.2012C64.4848 53.3747 64.3853 53.526 64.2542 53.655C64.1251 53.7841 63.9654 53.8857 63.7749 53.9597C63.5866 54.0338 63.3719 54.0708 63.1307 54.0708C62.8345 54.0708 62.5658 54.0179 62.3246 53.9121C62.0834 53.8042 61.8771 53.6593 61.7057 53.4773L61.8834 53.1853C61.9004 53.1621 61.9205 53.143 61.9437 53.1282C61.9691 53.1113 61.9966 53.1028 62.0263 53.1028C62.0538 53.1028 62.0844 53.1145 62.1183 53.1377C62.1543 53.1589 62.1945 53.1864 62.2389 53.2203C62.2833 53.2541 62.3341 53.2911 62.3912 53.3313C62.4484 53.3715 62.5129 53.4086 62.5848 53.4424C62.6589 53.4763 62.7424 53.5048 62.8355 53.5281C62.9286 53.5493 63.0334 53.5598 63.1497 53.5598C63.2957 53.5598 63.4258 53.5397 63.5401 53.4995C63.6543 53.4593 63.7506 53.4033 63.8289 53.3313C63.9093 53.2573 63.9707 53.1695 64.013 53.0679C64.0553 52.9664 64.0764 52.8532 64.0764 52.7283C64.0764 52.5908 64.0447 52.4787 63.9812 52.3919C63.9199 52.3031 63.8384 52.229 63.7369 52.1698C63.6353 52.1105 63.5189 52.0608 63.3878 52.0206C63.2566 51.9783 63.1233 51.936 62.9879 51.8937C62.8525 51.8492 62.7192 51.7985 62.588 51.7413C62.4568 51.6842 62.3405 51.6102 62.2389 51.5192C62.1373 51.4282 62.0548 51.315 61.9913 51.1796C61.93 51.0421 61.8993 50.8728 61.8993 50.6718C61.8993 50.511 61.93 50.3555 61.9913 50.2053C62.0548 50.0551 62.1458 49.9218 62.2643 49.8054C62.3849 49.689 62.5319 49.5959 62.7054 49.5261C62.881 49.4563 63.082 49.4214 63.3084 49.4214C63.5623 49.4214 63.7929 49.4616 64.0003 49.542C64.2097 49.6224 64.3938 49.7387 64.5525 49.8911L64.4033 50.1831ZM68.5987 49.9895H67.1261V54.02H66.5136V49.9895H65.0379V49.4722H68.5987V49.9895ZM69.8893 54.02H69.2736V49.4722H69.8893V54.02ZM74.1278 49.9895H72.6553V54.02H72.0427V49.9895H70.567V49.4722H74.1278V49.9895ZM76.5577 53.5313C76.746 53.5313 76.9142 53.4995 77.0623 53.4361C77.2104 53.3726 77.3353 53.2837 77.4368 53.1695C77.5405 53.0552 77.6188 52.9188 77.6717 52.7601C77.7267 52.6014 77.7542 52.4268 77.7542 52.2364V49.4722H78.3667V52.2364C78.3667 52.4988 78.3244 52.7421 78.2398 52.9664C78.1572 53.1906 78.0377 53.3853 77.8811 53.5503C77.7267 53.7132 77.5373 53.8412 77.313 53.9343C77.0888 54.0274 76.837 54.074 76.5577 54.074C76.2784 54.074 76.0267 54.0274 75.8024 53.9343C75.5781 53.8412 75.3877 53.7132 75.2311 53.5503C75.0746 53.3853 74.954 53.1906 74.8693 52.9664C74.7868 52.7421 74.7456 52.4988 74.7456 52.2364V49.4722H75.3581V52.2332C75.3581 52.4237 75.3845 52.5982 75.4374 52.7569C75.4924 52.9156 75.5707 53.0521 75.6723 53.1663C75.7759 53.2806 75.9018 53.3705 76.0499 53.4361C76.2002 53.4995 76.3694 53.5313 76.5577 53.5313ZM82.5455 49.9895H81.0729V54.02H80.4604V49.9895H78.9846V49.4722H82.5455V49.9895ZM86.0258 53.5186L86.0227 54.02H83.2203V49.4722H86.0227V49.9736H83.836V51.4843H85.6069V51.9667H83.836V53.5186H86.0258ZM92.7096 51.7477C92.7096 52.0883 92.6557 52.4015 92.5478 52.6871C92.4399 52.9706 92.2875 53.215 92.0908 53.4202C91.894 53.6254 91.657 53.7852 91.3799 53.8994C91.1048 54.0116 90.8001 54.0676 90.4658 54.0676C90.1316 54.0676 89.8269 54.0116 89.5518 53.8994C89.2768 53.7852 89.0409 53.6254 88.8441 53.4202C88.6473 53.215 88.495 52.9706 88.3871 52.6871C88.2792 52.4015 88.2252 52.0883 88.2252 51.7477C88.2252 51.407 88.2792 51.095 88.3871 50.8114C88.495 50.5258 88.6473 50.2804 88.8441 50.0752C89.0409 49.8678 89.2768 49.707 89.5518 49.5928C89.8269 49.4785 90.1316 49.4214 90.4658 49.4214C90.8001 49.4214 91.1048 49.4785 91.3799 49.5928C91.657 49.707 91.894 49.8678 92.0908 50.0752C92.2875 50.2804 92.4399 50.5258 92.5478 50.8114C92.6557 51.095 92.7096 51.407 92.7096 51.7477ZM92.0781 51.7477C92.0781 51.4684 92.04 51.2177 91.9638 50.9955C91.8876 50.7734 91.7797 50.5861 91.6401 50.4338C91.5005 50.2793 91.3312 50.1608 91.1323 50.0783C90.9334 49.9958 90.7113 49.9546 90.4658 49.9546C90.2225 49.9546 90.0014 49.9958 89.8026 50.0783C89.6037 50.1608 89.4334 50.2793 89.2916 50.4338C89.152 50.5861 89.044 50.7734 88.9679 50.9955C88.8917 51.2177 88.8536 51.4684 88.8536 51.7477C88.8536 52.027 88.8917 52.2777 88.9679 52.4998C89.044 52.7199 89.152 52.9071 89.2916 53.0616C89.4334 53.2139 89.6037 53.3313 89.8026 53.4138C90.0014 53.4942 90.2225 53.5344 90.4658 53.5344C90.7113 53.5344 90.9334 53.4942 91.1323 53.4138C91.3312 53.3313 91.5005 53.2139 91.6401 53.0616C91.7797 52.9071 91.8876 52.7199 91.9638 52.4998C92.04 52.2777 92.0781 52.027 92.0781 51.7477ZM94.2062 49.9736V51.5636H96.0755V52.065H94.2062V54.02H93.5905V49.4722H96.3929V49.9736H94.2062ZM101.538 49.9895H100.065V54.02H99.4528V49.9895H97.977V49.4722H101.538V49.9895ZM103.473 51.6747C103.65 51.6747 103.807 51.6535 103.942 51.6112C104.08 51.5668 104.194 51.5054 104.285 51.4271C104.378 51.3467 104.448 51.2515 104.495 51.1415C104.541 51.0315 104.564 50.9098 104.564 50.7765C104.564 50.5057 104.476 50.3015 104.298 50.164C104.12 50.0265 103.853 49.9577 103.498 49.9577H102.825V51.6747H103.473ZM105.574 54.02H105.028C104.916 54.02 104.833 53.9766 104.78 53.8899L103.6 52.265C103.564 52.2142 103.524 52.1782 103.482 52.1571C103.442 52.1338 103.379 52.1222 103.292 52.1222H102.825V54.02H102.213V49.4722H103.498C103.786 49.4722 104.034 49.5018 104.244 49.561C104.453 49.6181 104.626 49.7017 104.761 49.8117C104.899 49.9218 105 50.0551 105.066 50.2116C105.131 50.3661 105.164 50.5396 105.164 50.7321C105.164 50.8929 105.139 51.0431 105.088 51.1828C105.037 51.3224 104.963 51.4483 104.866 51.5604C104.771 51.6705 104.653 51.7646 104.514 51.8429C104.376 51.9212 104.22 51.9804 104.044 52.0206C104.122 52.065 104.19 52.1296 104.247 52.2142L105.574 54.02ZM108.607 52.3316L107.893 50.4814C107.872 50.4264 107.85 50.3629 107.827 50.291C107.803 50.2169 107.781 50.1386 107.76 50.0561C107.716 50.2275 107.67 50.3703 107.624 50.4846L106.909 52.3316H108.607ZM109.89 54.02H109.413C109.358 54.02 109.314 54.0063 109.28 53.9788C109.246 53.9513 109.221 53.9163 109.204 53.874L108.779 52.7759H106.738L106.313 53.874C106.3 53.9121 106.276 53.946 106.24 53.9756C106.204 54.0052 106.159 54.02 106.106 54.02H105.63L107.449 49.4722H108.071L109.89 54.02ZM114.172 49.4722V54.02H113.865C113.816 54.02 113.775 54.0116 113.741 53.9946C113.709 53.9777 113.677 53.9491 113.646 53.9089L111.015 50.4814C111.019 50.5343 111.022 50.5861 111.024 50.6369C111.026 50.6877 111.027 50.7353 111.027 50.7797V54.02H110.488V49.4722H110.805C110.833 49.4722 110.856 49.4743 110.875 49.4785C110.894 49.4806 110.911 49.4859 110.926 49.4944C110.941 49.5007 110.955 49.5113 110.97 49.5261C110.985 49.5388 111.001 49.5557 111.018 49.5769L113.649 53.0013C113.645 52.9463 113.64 52.8934 113.636 52.8426C113.634 52.7897 113.633 52.74 113.633 52.6934V49.4722H114.172ZM117.661 50.1831C117.642 50.2148 117.621 50.2391 117.598 50.2561C117.577 50.2709 117.55 50.2783 117.519 50.2783C117.483 50.2783 117.44 50.2603 117.392 50.2243C117.343 50.1884 117.282 50.1492 117.208 50.1069C117.136 50.0625 117.048 50.0223 116.944 49.9863C116.843 49.9503 116.719 49.9323 116.573 49.9323C116.435 49.9323 116.314 49.9514 116.208 49.9895C116.104 50.0254 116.016 50.0752 115.944 50.1386C115.875 50.2021 115.822 50.2772 115.786 50.364C115.75 50.4486 115.732 50.5406 115.732 50.6401C115.732 50.767 115.762 50.8728 115.824 50.9574C115.887 51.0399 115.97 51.1108 116.071 51.1701C116.175 51.2293 116.291 51.2811 116.42 51.3256C116.552 51.3679 116.685 51.4123 116.82 51.4589C116.958 51.5054 117.091 51.5583 117.22 51.6176C117.351 51.6747 117.468 51.7477 117.569 51.8365C117.673 51.9254 117.756 52.0344 117.817 52.1634C117.88 52.2925 117.912 52.4512 117.912 52.6395C117.912 52.8384 117.878 53.0256 117.811 53.2012C117.743 53.3747 117.643 53.526 117.512 53.655C117.383 53.7841 117.223 53.8857 117.033 53.9597C116.845 54.0338 116.63 54.0708 116.389 54.0708C116.093 54.0708 115.824 54.0179 115.583 53.9121C115.341 53.8042 115.135 53.6593 114.964 53.4773L115.141 53.1853C115.158 53.1621 115.179 53.143 115.202 53.1282C115.227 53.1113 115.255 53.1028 115.284 53.1028C115.312 53.1028 115.342 53.1145 115.376 53.1377C115.412 53.1589 115.452 53.1864 115.497 53.2203C115.541 53.2541 115.592 53.2911 115.649 53.3313C115.706 53.3715 115.771 53.4086 115.843 53.4424C115.917 53.4763 116 53.5048 116.094 53.5281C116.187 53.5493 116.291 53.5598 116.408 53.5598C116.554 53.5598 116.684 53.5397 116.798 53.4995C116.912 53.4593 117.009 53.4033 117.087 53.3313C117.167 53.2573 117.229 53.1695 117.271 53.0679C117.313 52.9664 117.334 52.8532 117.334 52.7283C117.334 52.5908 117.303 52.4787 117.239 52.3919C117.178 52.3031 117.096 52.229 116.995 52.1698C116.893 52.1105 116.777 52.0608 116.646 52.0206C116.515 51.9783 116.381 51.936 116.246 51.8937C116.11 51.8492 115.977 51.7985 115.846 51.7413C115.715 51.6842 115.598 51.6102 115.497 51.5192C115.395 51.4282 115.313 51.315 115.249 51.1796C115.188 51.0421 115.157 50.8728 115.157 50.6718C115.157 50.511 115.188 50.3555 115.249 50.2053C115.313 50.0551 115.404 49.9218 115.522 49.8054C115.643 49.689 115.79 49.5959 115.963 49.5261C116.139 49.4563 116.34 49.4214 116.566 49.4214C116.82 49.4214 117.051 49.4616 117.258 49.542C117.468 49.6224 117.652 49.7387 117.811 49.8911L117.661 50.1831ZM119.397 49.9736V51.5636H121.266V52.065H119.397V54.02H118.781V49.4722H121.584V49.9736H119.397ZM126.529 51.7477C126.529 52.0883 126.475 52.4015 126.367 52.6871C126.259 52.9706 126.107 53.215 125.91 53.4202C125.713 53.6254 125.476 53.7852 125.199 53.8994C124.924 54.0116 124.619 54.0676 124.285 54.0676C123.951 54.0676 123.646 54.0116 123.371 53.8994C123.096 53.7852 122.86 53.6254 122.663 53.4202C122.467 53.215 122.314 52.9706 122.206 52.6871C122.099 52.4015 122.045 52.0883 122.045 51.7477C122.045 51.407 122.099 51.095 122.206 50.8114C122.314 50.5258 122.467 50.2804 122.663 50.0752C122.86 49.8678 123.096 49.707 123.371 49.5928C123.646 49.4785 123.951 49.4214 124.285 49.4214C124.619 49.4214 124.924 49.4785 125.199 49.5928C125.476 49.707 125.713 49.8678 125.91 50.0752C126.107 50.2804 126.259 50.5258 126.367 50.8114C126.475 51.095 126.529 51.407 126.529 51.7477ZM125.897 51.7477C125.897 51.4684 125.859 51.2177 125.783 50.9955C125.707 50.7734 125.599 50.5861 125.459 50.4338C125.32 50.2793 125.151 50.1608 124.952 50.0783C124.753 49.9958 124.531 49.9546 124.285 49.9546C124.042 49.9546 123.821 49.9958 123.622 50.0783C123.423 50.1608 123.253 50.2793 123.111 50.4338C122.971 50.5861 122.863 50.7734 122.787 50.9955C122.711 51.2177 122.673 51.4684 122.673 51.7477C122.673 52.027 122.711 52.2777 122.787 52.4998C122.863 52.7199 122.971 52.9071 123.111 53.0616C123.253 53.2139 123.423 53.3313 123.622 53.4138C123.821 53.4942 124.042 53.5344 124.285 53.5344C124.531 53.5344 124.753 53.4942 124.952 53.4138C125.151 53.3313 125.32 53.2139 125.459 53.0616C125.599 52.9071 125.707 52.7199 125.783 52.4998C125.859 52.2777 125.897 52.027 125.897 51.7477ZM128.67 51.6747C128.848 51.6747 129.004 51.6535 129.14 51.6112C129.277 51.5668 129.391 51.5054 129.482 51.4271C129.575 51.3467 129.645 51.2515 129.692 51.1415C129.738 51.0315 129.762 50.9098 129.762 50.7765C129.762 50.5057 129.673 50.3015 129.495 50.164C129.317 50.0265 129.051 49.9577 128.695 49.9577H128.022V51.6747H128.67ZM130.771 54.02H130.225C130.113 54.02 130.03 53.9766 129.977 53.8899L128.797 52.265C128.761 52.2142 128.722 52.1782 128.679 52.1571C128.639 52.1338 128.576 52.1222 128.489 52.1222H128.022V54.02H127.41V49.4722H128.695C128.983 49.4722 129.232 49.5018 129.441 49.561C129.65 49.6181 129.823 49.7017 129.958 49.8117C130.096 49.9218 130.197 50.0551 130.263 50.2116C130.329 50.3661 130.361 50.5396 130.361 50.7321C130.361 50.8929 130.336 51.0431 130.285 51.1828C130.234 51.3224 130.16 51.4483 130.063 51.5604C129.968 51.6705 129.85 51.7646 129.711 51.8429C129.573 51.9212 129.417 51.9804 129.241 52.0206C129.319 52.065 129.387 52.1296 129.444 52.2142L130.771 54.02ZM136.121 49.4722V54.02H135.582V50.6782C135.582 50.6337 135.583 50.5861 135.585 50.5353C135.589 50.4846 135.593 50.4327 135.598 50.3798L134.036 53.2234C133.988 53.3186 133.913 53.3662 133.814 53.3662H133.725C133.626 53.3662 133.552 53.3186 133.503 53.2234L131.91 50.3671C131.923 50.4793 131.929 50.5829 131.929 50.6782V54.02H131.389V49.4722H131.843C131.898 49.4722 131.94 49.4774 131.97 49.488C132 49.4986 132.028 49.5282 132.056 49.5769L133.627 52.3761C133.652 52.4268 133.676 52.4797 133.7 52.5347C133.725 52.5898 133.748 52.6458 133.77 52.7029C133.791 52.6458 133.813 52.5898 133.836 52.5347C133.86 52.4776 133.885 52.4237 133.912 52.3729L135.455 49.5769C135.48 49.5282 135.508 49.4986 135.537 49.488C135.569 49.4774 135.612 49.4722 135.667 49.4722H136.121ZM139.699 52.3316L138.985 50.4814C138.964 50.4264 138.942 50.3629 138.919 50.291C138.895 50.2169 138.873 50.1386 138.852 50.0561C138.808 50.2275 138.762 50.3703 138.715 50.4846L138.001 52.3316H139.699ZM140.981 54.02H140.505C140.45 54.02 140.406 54.0063 140.372 53.9788C140.338 53.9513 140.313 53.9163 140.296 53.874L139.871 52.7759H137.83L137.405 53.874C137.392 53.9121 137.368 53.946 137.332 53.9756C137.296 54.0052 137.251 54.02 137.198 54.02H136.722L138.541 49.4722H139.163L140.981 54.02ZM144.655 49.9895H143.182V54.02H142.57V49.9895H141.094V49.4722H144.655V49.9895ZM145.946 54.02H145.33V49.4722H145.946V54.02ZM151.311 51.7477C151.311 52.0883 151.257 52.4015 151.149 52.6871C151.041 52.9706 150.889 53.215 150.692 53.4202C150.495 53.6254 150.258 53.7852 149.981 53.8994C149.706 54.0116 149.401 54.0676 149.067 54.0676C148.733 54.0676 148.428 54.0116 148.153 53.8994C147.878 53.7852 147.642 53.6254 147.445 53.4202C147.249 53.215 147.096 52.9706 146.988 52.6871C146.88 52.4015 146.826 52.0883 146.826 51.7477C146.826 51.407 146.88 51.095 146.988 50.8114C147.096 50.5258 147.249 50.2804 147.445 50.0752C147.642 49.8678 147.878 49.707 148.153 49.5928C148.428 49.4785 148.733 49.4214 149.067 49.4214C149.401 49.4214 149.706 49.4785 149.981 49.5928C150.258 49.707 150.495 49.8678 150.692 50.0752C150.889 50.2804 151.041 50.5258 151.149 50.8114C151.257 51.095 151.311 51.407 151.311 51.7477ZM150.679 51.7477C150.679 51.4684 150.641 51.2177 150.565 50.9955C150.489 50.7734 150.381 50.5861 150.241 50.4338C150.102 50.2793 149.932 50.1608 149.734 50.0783C149.535 49.9958 149.312 49.9546 149.067 49.9546C148.824 49.9546 148.603 49.9958 148.404 50.0783C148.205 50.1608 148.035 50.2793 147.893 50.4338C147.753 50.5861 147.645 50.7734 147.569 50.9955C147.493 51.2177 147.455 51.4684 147.455 51.7477C147.455 52.027 147.493 52.2777 147.569 52.4998C147.645 52.7199 147.753 52.9071 147.893 53.0616C148.035 53.2139 148.205 53.3313 148.404 53.4138C148.603 53.4942 148.824 53.5344 149.067 53.5344C149.312 53.5344 149.535 53.4942 149.734 53.4138C149.932 53.3313 150.102 53.2139 150.241 53.0616C150.381 52.9071 150.489 52.7199 150.565 52.4998C150.641 52.2777 150.679 52.027 150.679 51.7477ZM155.876 49.4722V54.02H155.568C155.52 54.02 155.479 54.0116 155.445 53.9946C155.413 53.9777 155.381 53.9491 155.349 53.9089L152.719 50.4814C152.723 50.5343 152.726 50.5861 152.728 50.6369C152.73 50.6877 152.731 50.7353 152.731 50.7797V54.02H152.192V49.4722H152.509C152.537 49.4722 152.56 49.4743 152.579 49.4785C152.598 49.4806 152.615 49.4859 152.63 49.4944C152.644 49.5007 152.659 49.5113 152.674 49.5261C152.689 49.5388 152.705 49.5557 152.722 49.5769L155.353 53.0013C155.348 52.9463 155.344 52.8934 155.34 52.8426C155.338 52.7897 155.337 52.74 155.337 52.6934V49.4722H155.876Z" fill="#134379"/>
<g id="Clip path group">
<mask id="mask1_204_3818" style="mask-type:luminance" maskUnits="userSpaceOnUse" x="63" y="5" width="21" height="21">
<g id="clip0_204_3793">
<path id="Vector_6" d="M83.5014 5.90997H63.4805V25.91H83.5014V5.90997Z" fill="white"/>
</g>
</mask>
<g mask="url(#mask1_204_3818)">
<g id="Group_2">
<path id="Vector_7" d="M78.2891 23.6074C78.2781 23.6125 78.267 23.6167 78.2559 23.6219C75.6342 24.7752 72.6875 23.0618 72.6585 23.0439C72.6627 23.0346 72.6679 23.0244 72.6721 23.0141C72.6636 23.0329 72.6551 23.0507 72.6474 23.0695C69.6326 22.4558 63.9611 17.6273 66.0578 12.2421C66.1336 12.0752 66.2178 11.9016 66.3021 11.7347C66.2501 11.8318 66.2008 11.9271 66.1557 12.0148C66.068 12.2046 65.9787 12.4106 65.9115 12.5808C65.7838 12.8949 65.6418 13.3264 65.5711 13.6583C65.5702 13.6626 65.5694 13.6669 65.5685 13.6711C65.5217 13.8643 65.4767 14.0763 65.4384 14.3044C65.4349 14.324 65.4307 14.3435 65.4273 14.3623C65.4231 14.3929 65.4171 14.4286 65.412 14.4644C65.3839 14.6346 65.3609 14.8015 65.3516 14.9504C65.3473 15.0168 65.3431 15.0798 65.3396 15.1411C65.3379 15.1606 65.3371 15.181 65.3354 15.2006C65.3312 15.267 65.3269 15.3326 65.3235 15.3964C65.3226 15.4211 65.321 15.4466 65.3201 15.4713C65.3184 15.5198 65.3158 15.5675 65.315 15.6135C65.3141 15.6262 65.3133 15.639 65.3124 15.6509L65.3133 15.6756C65.3133 15.6781 65.3133 15.6807 65.3133 15.6832C65.3124 15.719 65.3124 15.7539 65.3124 15.7896C65.3133 15.7735 65.3133 15.7581 65.3141 15.7411C65.315 15.7956 65.3158 15.8526 65.3175 15.9113C65.3184 15.9232 65.3192 15.9343 65.3192 15.9462C65.5481 19.5168 68.0158 22.6107 71.9472 24.2432C71.9395 24.25 71.9318 24.256 71.925 24.2611C71.5021 24.1547 67.8014 23.1205 66.0332 19.2674C66.0068 19.2104 65.9813 19.1525 65.9557 19.0938C66 19.2027 66.0425 19.3014 66.0851 19.3959C66.1089 19.4487 66.1319 19.4989 66.1523 19.5449C66.1625 19.567 66.1727 19.59 66.1838 19.6138C66.188 19.6224 66.1923 19.6326 66.1974 19.6419C66.2119 19.6709 66.2263 19.7015 66.2417 19.7313C66.2978 19.8428 66.3599 19.9594 66.4237 20.0743L66.4263 20.0794C66.4271 20.0811 66.428 20.082 66.4288 20.0837C66.4561 20.133 66.4842 20.1815 66.5122 20.23C66.5122 20.23 66.5122 20.2309 66.5131 20.2309L66.5139 20.2318C66.5871 20.3577 66.6612 20.4786 66.7309 20.5841C66.7463 20.608 66.7633 20.6326 66.7803 20.6582C66.7948 20.6812 66.8092 20.7033 66.8245 20.7263C66.9079 20.8514 67.0185 21.0037 67.1207 21.1374C67.1317 21.1518 67.1428 21.1671 67.1539 21.1816C67.2534 21.3136 67.3947 21.483 67.5036 21.6072C67.5197 21.6259 67.5376 21.6455 67.5555 21.6659C67.5572 21.6676 67.5597 21.6702 67.5615 21.6727L67.5674 21.6796C67.5759 21.6889 67.5852 21.6991 67.5946 21.7093C67.5972 21.7127 67.5997 21.7153 67.6023 21.7179C67.6125 21.7297 67.6227 21.7417 67.6329 21.7536C67.724 21.8541 67.832 21.9638 67.9257 22.0566C67.9273 22.0583 67.929 22.06 67.9308 22.0617C67.9954 22.1264 68.0728 22.2021 68.1512 22.2745C68.1614 22.2839 68.1716 22.2932 68.1818 22.3034C68.1852 22.3068 68.1894 22.3103 68.1928 22.3136C68.2524 22.3681 68.3111 22.4209 68.3647 22.466C68.3673 22.4686 68.3698 22.4703 68.3724 22.4719C68.3741 22.4737 68.3758 22.4745 68.3775 22.4762C68.3988 22.4941 68.4209 22.512 68.443 22.5315C68.5451 22.6167 68.6609 22.7078 68.7519 22.7827L68.7902 22.8107C68.7919 22.8124 68.7936 22.8133 68.7953 22.815C68.8999 22.8924 69.0233 22.9852 69.1272 23.0576C69.1288 23.0584 69.1305 23.0601 69.1314 23.0609C69.1731 23.0916 69.2216 23.1239 69.2718 23.1571C69.2837 23.1648 69.2956 23.1716 69.3075 23.1793C69.3348 23.1971 69.362 23.215 69.3893 23.2321C69.4488 23.2695 69.5067 23.3052 69.5577 23.3376C69.5611 23.3401 69.5654 23.3418 69.5688 23.3444C69.5858 23.3546 69.6028 23.3648 69.619 23.375C69.7134 23.432 69.8028 23.484 69.8888 23.5316C69.9219 23.5495 69.9542 23.5666 69.9849 23.5819C70.0113 23.5955 70.0394 23.6091 70.0674 23.6227C70.0734 23.6253 70.0793 23.6287 70.0853 23.6312C70.0879 23.6321 70.0904 23.6338 70.0921 23.6346C70.1261 23.6517 70.1619 23.6687 70.1976 23.6857C70.3048 23.7376 70.4189 23.7912 70.5303 23.8423C70.5584 23.8551 70.5857 23.8678 70.6137 23.8806C70.6231 23.8849 70.6333 23.8891 70.6427 23.8934C70.6571 23.9002 70.6716 23.9062 70.6861 23.913C70.6894 23.9146 70.692 23.9155 70.6954 23.9172C70.7499 23.9419 70.8035 23.9657 70.8537 23.987C70.8537 23.987 70.8571 23.9887 70.8613 23.9904C70.9133 24.0126 70.972 24.0355 71.0332 24.0585C71.1013 24.084 71.1719 24.1087 71.2366 24.1308C71.2468 24.1343 71.257 24.1376 71.2681 24.1411C71.274 24.1428 71.2791 24.1445 71.2851 24.147L71.3115 24.1564C71.3949 24.1819 71.4944 24.2143 71.5914 24.2449L71.6527 24.2653C71.6561 24.2662 71.6595 24.2671 71.6629 24.2687L71.7284 24.2875C71.748 24.2934 71.7667 24.2985 71.7846 24.3036C71.7872 24.3045 71.7897 24.3053 71.7923 24.3053H71.7939C71.9224 24.3411 72.0875 24.3794 72.2237 24.4126C72.239 24.4168 72.2543 24.4203 72.2696 24.4236C72.2713 24.4236 72.2722 24.4245 72.2739 24.4245C72.2748 24.4245 72.2756 24.4245 72.2756 24.4245C72.2764 24.4245 72.2781 24.4254 72.279 24.4254L72.3037 24.4305C72.3198 24.4347 72.336 24.4381 72.3513 24.4415C72.4755 24.4679 72.6117 24.4934 72.7691 24.519C72.816 24.5275 72.867 24.536 72.9206 24.5437C72.9393 24.5462 72.9572 24.5488 72.9759 24.5513C72.9844 24.5522 72.993 24.5539 73.0014 24.5547C73.0218 24.5573 73.0423 24.5598 73.0627 24.5624C73.0738 24.5641 73.0848 24.5649 73.0967 24.5666C73.1214 24.5692 73.147 24.5726 73.1725 24.5752C73.1844 24.5768 73.1963 24.5777 73.2082 24.5786C73.2363 24.5811 73.2644 24.5845 73.2933 24.5871C73.409 24.5973 73.552 24.6083 73.6848 24.616C73.7043 24.6169 73.7247 24.6186 73.7451 24.6194C73.7519 24.6202 73.7596 24.6202 73.7664 24.6211C73.7775 24.622 73.7894 24.622 73.7996 24.6228H73.8064C73.8098 24.6228 73.8141 24.6228 73.8175 24.6237C73.8362 24.6245 73.8549 24.6245 73.8745 24.6253C73.8932 24.6262 73.9119 24.6271 73.9315 24.6271C73.9545 24.6279 73.9775 24.6279 74.0021 24.6279C73.9945 24.6279 73.9868 24.6288 73.9783 24.6288H74.0209C74.0481 24.6288 74.0762 24.6288 74.1034 24.6288C74.1732 24.6296 74.2455 24.6296 74.3204 24.6296C74.3332 24.6296 74.3476 24.6288 74.3612 24.6288C74.3638 24.6288 74.3663 24.6288 74.3689 24.6288C74.3748 24.6288 74.3817 24.6288 74.3876 24.6288C74.5374 24.6253 74.6965 24.6177 74.8633 24.6032C74.8744 24.6024 74.8863 24.6016 74.8973 24.6007C74.9186 24.599 74.9399 24.5964 74.9611 24.5939C74.9696 24.593 74.9781 24.5922 74.9867 24.5913C75.0113 24.5888 75.0369 24.5862 75.0624 24.5837C75.0786 24.5819 75.0939 24.5803 75.1101 24.5785C75.2096 24.5666 75.31 24.553 75.3994 24.542C75.4027 24.542 75.4062 24.5411 75.4096 24.5402C75.4113 24.5402 75.4121 24.5402 75.4138 24.5394C75.4164 24.5394 75.4189 24.5386 75.4215 24.5386L75.4402 24.536C75.4453 24.5351 75.4513 24.5343 75.4572 24.5334C75.6453 24.5054 75.8325 24.4721 76.012 24.4347C76.035 24.4296 76.058 24.4236 76.0793 24.4185C76.2962 24.3751 76.5788 24.29 76.7915 24.2287C76.8068 24.2245 76.8229 24.2194 76.8391 24.2143C76.9481 24.1793 77.0595 24.1419 77.1736 24.1002C77.2127 24.0857 77.2518 24.0713 77.2901 24.056C77.3105 24.0483 77.3318 24.0406 77.3514 24.0338L77.3846 24.0193C77.394 24.0159 77.4033 24.0117 77.4126 24.0083C77.4603 23.9895 77.5063 23.9717 77.5497 23.9538C77.5539 23.9521 77.5582 23.9504 77.5624 23.9487C77.5769 23.9427 77.5914 23.9368 77.6058 23.9308C77.6365 23.9181 77.6654 23.9053 77.6952 23.8917C77.7573 23.8645 77.8194 23.8372 77.8824 23.8074C77.8935 23.8023 77.9045 23.7972 77.9147 23.7929C77.9845 23.7614 78.0619 23.7231 78.1411 23.6832C78.1419 23.6832 78.1427 23.6823 78.1436 23.6823C78.1453 23.6814 78.1478 23.6797 78.1496 23.6789C78.2023 23.6525 78.2551 23.6244 78.307 23.5972C78.3121 23.5946 78.3164 23.5912 78.3215 23.5887C78.3104 23.5963 78.3002 23.6014 78.2891 23.6074Z" fill="#134379"/>
<g id="Mask group_2">
<mask id="mask2_204_3818" style="mask-type:luminance" maskUnits="userSpaceOnUse" x="68" y="7" width="16" height="14">
<g id="Group_3">
<path id="Vector_8" d="M68.4852 7.03638H83.0142V20.9257H68.4852V7.03638Z" fill="white"/>
</g>
</mask>
<g mask="url(#mask2_204_3818)">
<g id="Group_4">
<path id="Vector_9" d="M82.9713 14.9215C82.9687 14.8951 82.967 14.8695 82.9644 14.844C82.956 14.7666 82.9466 14.6874 82.9355 14.6074C82.9321 14.5853 82.9287 14.564 82.9253 14.5427C82.9057 14.4278 82.8853 14.2899 82.8615 14.1563C82.8692 14.204 82.8768 14.2533 82.8845 14.3053C82.8828 14.2959 82.8811 14.2865 82.8794 14.2763C82.8828 14.2976 82.8862 14.3189 82.8887 14.341C82.8896 14.347 82.8904 14.3521 82.8913 14.358C82.8973 14.3963 82.9032 14.4355 82.9083 14.4746C82.9117 14.4993 82.9151 14.524 82.9194 14.5487C82.9228 14.5733 82.9261 14.598 82.9296 14.6236C82.9458 14.7385 82.9602 14.8542 82.9721 14.9657C82.9815 15.0534 82.9883 15.1385 82.9934 15.2168C82.9985 15.4211 83.0019 15.6679 83.0019 15.9037C83.0019 15.9267 83.0019 15.9497 83.0019 15.9726C83.0019 16.0016 83.001 16.0297 83.001 16.0586C83.0002 16.0943 83.0002 16.1301 82.9994 16.165C82.9985 16.1778 82.9977 16.1914 82.9977 16.2041C82.9968 16.2356 82.9968 16.2663 82.9959 16.2952C82.9959 16.2807 82.9951 16.2671 82.9951 16.2526C82.9934 16.279 82.9917 16.3063 82.99 16.3335C82.9781 16.4161 82.9627 16.4969 82.9449 16.5744C82.9304 16.6374 82.9151 16.6995 82.8973 16.76C82.8683 16.8587 82.8343 16.9531 82.796 17.0434C82.7075 17.2536 82.596 17.4408 82.4641 17.606C82.3824 17.7081 82.2931 17.8026 82.1969 17.8886C82.1288 17.949 82.0573 18.006 81.9825 18.0588C81.8438 18.1566 81.694 18.2409 81.5358 18.3133C81.4302 18.361 81.3222 18.4044 81.209 18.4418C81.0746 18.4861 80.9342 18.5235 80.7903 18.5533C80.598 18.5933 80.3989 18.6206 80.1947 18.6359C80.0024 18.6503 79.8058 18.6554 79.6058 18.6503C79.411 18.6452 79.2136 18.6325 79.0153 18.6104C78.7549 18.5814 78.4937 18.5388 78.2341 18.4835C78.0189 18.4375 77.8053 18.3839 77.5951 18.3218C77.3772 18.2579 77.1645 18.1865 76.9577 18.1073C76.7654 18.0341 76.5782 17.9549 76.3987 17.8715C76.2132 17.7847 76.0362 17.6928 75.8702 17.5966C75.6422 17.4647 75.4337 17.3242 75.2508 17.1787C75.1257 17.08 75.0116 16.9779 74.9121 16.8749C74.8832 16.8451 74.8551 16.8152 74.8287 16.7846C74.8355 16.7616 74.8423 16.7387 74.8483 16.7157C74.8568 16.6859 74.8653 16.6569 74.8738 16.6272C74.9079 16.6297 74.9325 16.6314 74.9606 16.6357C74.9989 16.6416 75.0423 16.651 75.1214 16.6697C75.655 16.8238 76.1519 16.9498 76.6156 17.0519C76.8122 17.0945 77.0028 17.1336 77.1875 17.1677C77.3389 17.1957 77.487 17.2213 77.6308 17.2434C77.7925 17.269 77.9482 17.2902 78.1005 17.3081C78.2146 17.3217 78.3269 17.3336 78.4358 17.3438C78.6401 17.3626 78.8357 17.3753 79.0221 17.3821C79.205 17.3889 79.3795 17.3898 79.5463 17.3847C79.719 17.3796 79.8824 17.3694 80.0381 17.3541C80.204 17.337 80.3606 17.3149 80.5087 17.2868C80.7087 17.2493 80.8916 17.2017 81.0592 17.1464C81.1928 17.1021 81.317 17.0527 81.4319 16.9991C81.5706 16.9345 81.6974 16.8629 81.8114 16.7864C81.9289 16.7072 82.0344 16.6229 82.1288 16.5352C82.2327 16.4374 82.3237 16.3352 82.402 16.2288C82.4522 16.1616 82.4964 16.0935 82.5373 16.0245C82.6156 15.8909 82.6777 15.7547 82.727 15.6186C82.762 15.5232 82.7892 15.427 82.8113 15.3335C82.8581 15.136 82.8811 14.9453 82.8887 14.7734C82.8989 14.5555 82.8853 14.3674 82.8692 14.2304C82.8692 14.2295 82.8692 14.2278 82.8683 14.2269C82.8674 14.2227 82.8666 14.2193 82.8666 14.215C82.8666 14.2142 82.8666 14.2133 82.8666 14.2133C82.8658 14.2082 82.8649 14.2023 82.8641 14.1971C82.8564 14.1555 82.8488 14.1146 82.8411 14.0737C82.8462 14.095 82.8521 14.1171 82.8572 14.1384C82.8496 14.0942 82.8411 14.0508 82.8326 14.009C82.8283 13.9886 82.824 13.9682 82.8198 13.9478C82.8156 13.9273 82.8105 13.9061 82.8062 13.8873C82.7994 13.8609 82.7926 13.8329 82.7858 13.8048C82.7671 13.7196 82.7475 13.6371 82.7279 13.5588C82.7203 13.5299 82.7126 13.5009 82.7049 13.4711C82.676 13.3656 82.6454 13.2617 82.6139 13.1596C82.6122 13.1545 82.6105 13.1494 82.6088 13.1443C82.6037 13.129 82.5994 13.1136 82.5943 13.0983L82.585 13.0677L82.5773 13.0473C82.5748 13.0396 82.5722 13.032 82.5697 13.0242C82.5645 13.0098 82.5603 12.9953 82.5552 12.9808C82.5433 12.9468 82.5322 12.9119 82.5203 12.8779C82.5185 12.8719 82.516 12.8651 82.5143 12.8591C82.5134 12.8557 82.5118 12.8524 82.5109 12.8489C82.4828 12.7681 82.4522 12.6872 82.4207 12.6055C82.4199 12.6038 82.419 12.6013 82.4182 12.5995C82.4173 12.5961 82.4156 12.5919 82.4139 12.5885L82.408 12.5749C82.3544 12.4387 82.2973 12.3008 82.2352 12.1629C82.2292 12.1484 82.2224 12.1348 82.2165 12.1204C82.2122 12.1118 82.2088 12.1033 82.2046 12.0948C82.1961 12.077 82.1876 12.0582 82.1791 12.0404C82.1756 12.0327 82.1723 12.025 82.1688 12.0174C82.1688 12.0165 82.168 12.0165 82.168 12.0157C82.1416 11.9604 82.1118 11.8999 82.0812 11.8378C82.0854 11.848 82.0897 11.8573 82.094 11.8675C82.1042 11.8914 82.1144 11.9152 82.1238 11.9391C82.1595 12.0276 82.1918 12.1144 82.219 12.2004C82.2591 12.3238 82.2897 12.443 82.3127 12.5596C82.3339 12.666 82.3484 12.7698 82.3561 12.8702C82.3637 12.9698 82.3646 13.066 82.3586 13.1596C82.3535 13.2524 82.3416 13.3409 82.3246 13.4268C82.3067 13.5146 82.2837 13.5979 82.2539 13.6788C82.2216 13.7673 82.1833 13.8516 82.1373 13.9324C82.0974 14.0031 82.0522 14.0703 82.0021 14.1342C81.9493 14.2023 81.8906 14.2661 81.8276 14.3265C81.7527 14.3971 81.6719 14.4636 81.5843 14.5231C81.5043 14.5776 81.4191 14.6278 81.3298 14.6729C81.2379 14.7189 81.1418 14.7606 81.0405 14.7972C80.9307 14.8364 80.8159 14.8704 80.6967 14.8985C80.5776 14.9257 80.4534 14.9478 80.3249 14.9632C80.2253 14.9751 80.1232 14.9836 80.0194 14.9887C79.9402 14.9921 79.8594 14.9938 79.7777 14.993C79.6875 14.9921 79.5965 14.9887 79.5046 14.9828C79.4288 14.9777 79.3514 14.9708 79.274 14.9615C79.2101 14.9547 79.1463 14.9462 79.0816 14.9368C79.034 14.93 78.9864 14.9215 78.9387 14.913C78.8672 14.9002 78.7949 14.8866 78.7217 14.8704C78.6834 14.8619 78.6452 14.8534 78.6069 14.844C78.5643 14.8338 78.5209 14.8227 78.4775 14.8117C78.4324 14.7997 78.3873 14.7879 78.3422 14.7751C78.3124 14.7666 78.2826 14.7572 78.2529 14.7487C78.2095 14.7359 78.1661 14.7223 78.1226 14.7079C78.0843 14.6951 78.0461 14.6823 78.0078 14.6695C77.972 14.6567 77.9355 14.644 77.8997 14.6312C77.8691 14.6201 77.8393 14.6091 77.8087 14.5972C77.7934 14.5912 77.7772 14.5853 77.761 14.5785C77.7398 14.57 77.7185 14.5614 77.6964 14.5521C77.664 14.5385 77.6308 14.524 77.5968 14.5086C77.5619 14.4933 77.5262 14.4772 77.4896 14.4593C77.447 14.4389 77.4028 14.4176 77.3586 14.3955C77.3134 14.3725 77.2675 14.3486 77.2215 14.324C77.1679 14.295 77.1134 14.2644 77.059 14.2329C77.0054 14.2023 76.9518 14.1699 76.8982 14.1367C76.8267 14.0925 76.7552 14.0457 76.6854 13.9972C76.5238 13.8857 76.368 13.7639 76.2285 13.6345C76.0873 13.5035 75.963 13.3656 75.8677 13.2226C75.843 13.186 75.8201 13.1486 75.7996 13.1111C75.8064 13.0813 75.8133 13.0524 75.8209 13.0234C75.826 13.0021 75.8311 12.9808 75.8362 12.9596C75.906 12.9587 75.906 12.9587 75.9758 12.9749C76.2481 13.0651 76.5025 13.1494 76.7416 13.2268C76.8684 13.2677 76.9918 13.3069 77.1109 13.3443C77.1756 13.3639 77.2385 13.3834 77.3007 13.4022C77.3637 13.4209 77.4257 13.4396 77.487 13.4575C77.5304 13.4703 77.573 13.4822 77.6155 13.4941C77.6598 13.506 77.7031 13.5179 77.7465 13.5299C77.7968 13.5434 77.847 13.5562 77.8963 13.569C77.9423 13.5809 77.9874 13.5911 78.0316 13.6022C78.075 13.6124 78.1184 13.6218 78.1601 13.6312C78.2077 13.6414 78.2554 13.6516 78.3022 13.6609C78.338 13.6677 78.3737 13.6746 78.4086 13.6805C78.4605 13.6899 78.5124 13.6984 78.5626 13.7052C78.6153 13.7128 78.6681 13.7196 78.72 13.7256C78.7651 13.7307 78.8094 13.735 78.8536 13.7384C78.9217 13.7435 78.9881 13.7469 79.0544 13.7486C79.1199 13.7503 79.1838 13.7494 79.2476 13.7469C79.3174 13.7443 79.3871 13.7392 79.4561 13.7316C79.542 13.7222 79.6263 13.7086 79.7105 13.6915C79.8075 13.672 79.9037 13.6473 79.9998 13.6167C80.0909 13.5877 80.1819 13.5537 80.2738 13.5154C80.2832 13.5111 80.2925 13.5077 80.3028 13.5035C80.3989 13.4618 80.4883 13.4175 80.5716 13.3707C80.6729 13.3145 80.7648 13.2558 80.8474 13.1936C80.9282 13.1341 80.9997 13.0719 81.0643 13.0081C81.1349 12.9383 81.1971 12.8668 81.2507 12.7936C81.3035 12.7221 81.3485 12.6489 81.386 12.5749C81.4251 12.4982 81.4575 12.4208 81.483 12.3434C81.5102 12.2591 81.5306 12.1748 81.5443 12.0914C81.5587 12.002 81.5664 11.9135 81.5673 11.8276C81.5689 11.7416 81.5647 11.6573 81.5562 11.5756C81.5468 11.4811 81.5306 11.3901 81.5119 11.3049C81.4881 11.1951 81.4583 11.0947 81.4277 11.0071C81.3775 10.8624 81.3273 10.7526 81.2975 10.6947C81.2915 10.6836 81.2873 10.6742 81.283 10.6666C81.226 10.5585 81.1656 10.4555 81.0992 10.3543C80.9741 10.1601 80.8286 9.97289 80.6525 9.77715C80.6338 9.75755 80.615 9.738 80.5955 9.71758C80.5478 9.66652 80.4985 9.6146 80.45 9.56524C80.4151 9.52945 80.381 9.49458 80.3496 9.46395C80.2508 9.36776 80.1223 9.24774 80.01 9.14813C80.0092 9.14732 80.0083 9.14645 80.0075 9.14558C79.993 9.132 79.9768 9.1175 79.9607 9.10306C79.9411 9.086 79.9224 9.069 79.9028 9.05282C79.8526 9.01024 79.799 8.96603 79.7462 8.92345C79.6892 8.87664 79.6339 8.83238 79.5795 8.79067C79.4995 8.72685 79.3999 8.65364 79.2978 8.58043C79.2484 8.5447 79.2008 8.51151 79.1549 8.48001C79.1531 8.47914 79.1514 8.47746 79.1498 8.47659C79.1352 8.46638 79.1208 8.45704 79.1064 8.44764C79.0706 8.4238 79.0366 8.40001 79.0025 8.37872C78.9762 8.36167 78.9489 8.34467 78.9217 8.3268L78.9208 8.32593C78.8817 8.30041 78.8443 8.27744 78.8085 8.25528C78.7923 8.24507 78.7762 8.23486 78.76 8.22552L78.7583 8.22465L78.7575 8.22383C78.7558 8.22296 78.7532 8.22128 78.7515 8.21954C78.7422 8.21357 78.7328 8.20846 78.7234 8.20254C78.5958 8.1251 78.4784 8.05786 78.3669 7.99741C78.355 7.99144 78.3439 7.98546 78.3329 7.97954C78.332 7.97868 78.3303 7.97868 78.3295 7.97781C78.2171 7.92165 78.0759 7.84763 77.9559 7.78973C77.9414 7.78289 77.927 7.7761 77.9133 7.76931L77.9065 7.76589C77.9049 7.76502 77.9022 7.76421 77.9006 7.76334C77.8708 7.7497 77.8419 7.73613 77.8129 7.72331C77.8095 7.72163 77.807 7.72076 77.8036 7.71907C77.7891 7.71229 77.7738 7.70631 77.7593 7.69952C77.7389 7.691 77.7176 7.68247 77.6955 7.67313C77.6683 7.66205 77.6385 7.65015 77.6078 7.63739C77.7261 7.69013 77.8521 7.74802 77.9763 7.80673C78.2044 7.92333 78.4146 8.04249 78.6069 8.16252C78.8766 8.33191 79.1115 8.50299 79.314 8.67493C79.3446 8.70046 79.3744 8.72685 79.4033 8.75238C79.5812 8.91156 79.7318 9.06982 79.8577 9.22732C79.9292 9.31666 79.9922 9.40518 80.0483 9.49371C80.0977 9.57116 80.1411 9.6486 80.1777 9.72436C80.216 9.80181 80.2483 9.87844 80.2738 9.9542C80.3044 10.0435 80.3274 10.1312 80.3419 10.2164C80.3555 10.2913 80.3623 10.3645 80.364 10.4359C80.3657 10.504 80.3623 10.5696 80.3538 10.6334C80.3436 10.7109 80.3266 10.7857 80.3028 10.8564C80.2798 10.9245 80.2517 10.9892 80.2168 11.0505C80.1785 11.1186 80.1334 11.1824 80.0824 11.2419C80.022 11.3117 79.9522 11.3739 79.8756 11.4292C79.7965 11.4854 79.7096 11.5339 79.6161 11.5739C79.5692 11.5935 79.5216 11.6114 79.4714 11.6267C79.4084 11.6463 79.3437 11.6607 79.2765 11.6735C79.1531 11.6957 79.0255 11.7059 78.8944 11.705C78.7498 11.7041 78.6026 11.6905 78.4545 11.6642C78.2469 11.6276 78.0384 11.568 77.8402 11.488C77.6402 11.4079 77.4496 11.3075 77.2777 11.1909C77.116 11.082 76.9714 10.9586 76.8497 10.824C76.7765 10.7432 76.7127 10.6581 76.6582 10.5696C76.6089 10.4879 76.568 10.4036 76.5365 10.3176C76.4965 10.2061 76.4736 10.0912 76.4701 9.97289C76.4685 9.93205 76.4693 9.8912 76.4727 9.85036C76.4795 9.81202 76.4855 9.77373 76.4914 9.73631C76.5084 9.82142 76.5391 9.90141 76.5799 9.97631C76.6582 10.1176 76.7773 10.2393 76.9203 10.3372C77.196 10.5261 77.5644 10.63 77.9167 10.63C78.1073 10.63 78.2937 10.5985 78.4588 10.5338C78.5737 10.4887 78.6783 10.4274 78.7668 10.3483C78.8213 10.2997 78.8698 10.2444 78.9106 10.1814C78.9243 10.1601 78.9378 10.1389 78.9498 10.1168C78.9855 10.0529 79.0119 9.98826 79.0315 9.92184C79.0544 9.84352 79.0672 9.76439 79.0698 9.68265C79.0714 9.60608 79.0646 9.52945 79.0493 9.45118C79.0374 9.39155 79.0204 9.33116 78.9991 9.27158C78.971 9.19413 78.9361 9.11663 78.8928 9.03919C78.8502 8.96261 78.8 8.88598 78.743 8.8094C78.6783 8.72343 78.606 8.63914 78.5243 8.55491C78.4562 8.48512 78.3831 8.41701 78.3039 8.34978C78.2154 8.27401 78.121 8.19999 78.0197 8.12846C77.8104 7.97954 77.573 7.84078 77.3143 7.71397C77.2258 7.67057 77.1356 7.62973 77.042 7.58971C76.8037 7.48842 76.5493 7.39734 76.2813 7.32076C76.197 7.29692 76.111 7.27395 76.0234 7.25266C75.6788 7.16837 75.3146 7.10711 74.9359 7.07474C74.5811 7.04411 74.2143 7.039 73.8391 7.06371C73.5149 7.08495 73.1847 7.1284 72.8511 7.19645C70.1409 7.75313 68.4578 9.73631 68.4944 12.2906C68.4961 12.3953 68.5003 12.5017 68.5072 12.6081C68.5454 13.1656 68.6569 13.6907 68.8041 14.1674C69.0517 14.9683 69.3989 15.6296 69.6678 16.0714C69.758 16.2195 69.8397 16.3437 69.9061 16.439C70.5051 17.3064 70.8762 17.7201 71.6216 18.4503C71.7024 18.5295 71.7858 18.6069 71.87 18.6818C72.3287 19.0895 72.8324 19.4419 73.3081 19.8275C73.4604 19.9509 73.6102 20.0768 73.754 20.2096C73.7591 20.196 73.7633 20.1815 73.7684 20.1679C73.8365 20.1764 73.8756 20.1824 73.9497 20.1986C73.9829 20.2063 74.0238 20.2156 74.0765 20.2292C75.7315 20.6795 77.0539 20.8804 78.1142 20.9152C78.5294 20.9289 78.9046 20.917 79.2442 20.8838C79.5743 20.8523 79.8705 20.8004 80.1351 20.7339C80.4261 20.6607 80.6806 20.5688 80.9035 20.465C81.0848 20.3807 81.2447 20.2879 81.386 20.1909C81.6328 20.0215 81.8242 19.8377 81.9749 19.6564C82.1093 19.4947 82.2114 19.3346 82.2905 19.19C82.3671 19.0504 82.4224 18.9244 82.4675 18.8223C82.47 18.8172 82.4726 18.8112 82.4752 18.8053L82.4445 18.8861L82.4105 18.9764C82.4164 18.9619 82.4216 18.9474 82.4275 18.9321C82.4394 18.9014 82.4514 18.8691 82.4641 18.835C82.476 18.8019 82.4888 18.7678 82.5007 18.7346C82.5185 18.6844 82.5356 18.635 82.5492 18.5916C82.5603 18.5576 82.5713 18.5226 82.5815 18.4886C82.5824 18.4861 82.5832 18.4844 82.5832 18.4818C82.6003 18.4282 82.6164 18.3754 82.6326 18.3235L82.6428 18.2937C82.6454 18.2852 82.647 18.2759 82.6496 18.2673C82.7688 17.863 82.8436 17.5064 82.8921 17.2102C82.893 17.2051 82.8938 17.2 82.8947 17.1957C82.8981 17.1779 82.9006 17.1591 82.904 17.1404C82.9083 17.1157 82.9117 17.0902 82.9159 17.0638C82.9177 17.0519 82.9194 17.04 82.921 17.0272C82.9219 17.0221 82.9228 17.0178 82.9228 17.0127C82.9228 17.011 82.9236 17.0094 82.9236 17.0085C82.9236 17.0102 82.9228 17.0119 82.9228 17.0145C82.9279 16.9787 82.9321 16.9412 82.9364 16.9038C82.9389 16.8851 82.9415 16.8655 82.944 16.8467C82.95 16.7923 82.956 16.7361 82.9619 16.68C82.967 16.6323 82.9721 16.5838 82.9764 16.5352C82.9789 16.5106 82.9806 16.4859 82.9832 16.4612C82.9926 16.3582 83.0002 16.2544 83.0053 16.1539C83.0079 16.0961 83.0104 16.0365 83.0121 15.9744C83.013 15.9258 83.013 15.879 83.013 15.833C83.0164 15.5547 83.001 15.2117 82.9713 14.9215Z" fill="#134379"/>
</g>
</g>
</g>
<path id="Vector_10" d="M81.2895 20.9536C81.0742 21.1706 80.8266 21.3451 80.5543 21.4821C80.3544 21.5825 80.1408 21.6634 79.9178 21.7264C79.5945 21.8166 79.2515 21.8694 78.8967 21.8898C78.5274 21.9111 78.147 21.8975 77.7658 21.8558C77.2706 21.8022 76.7745 21.7009 76.3022 21.5672C75.533 21.3493 74.8267 21.0455 74.2889 20.7178C74.0694 20.5842 73.8771 20.4471 73.7205 20.3101C73.7256 20.2947 73.7307 20.2794 73.7358 20.265C73.7256 20.2939 73.7162 20.3229 73.706 20.351C73.6065 20.3356 73.5052 20.3143 73.4031 20.2905C72.9053 20.1705 72.3811 19.9475 71.8586 19.6419C71.2366 19.2776 70.6163 18.7959 70.0428 18.2307C69.562 17.7567 69.1135 17.2247 68.7238 16.6527C68.363 16.1233 68.0533 15.5607 67.815 14.9802C67.5947 14.4432 67.4355 13.8908 67.3547 13.3358C67.1309 11.8054 67.5028 10.2555 68.8183 8.95068C69.0718 8.69873 69.3603 8.45618 69.6871 8.22466C70.0155 7.99145 70.3508 7.8093 70.6716 7.66461C71.1124 7.46546 71.5217 7.33691 71.8442 7.24415C71.9063 7.22628 71.9667 7.20928 72.022 7.19309L72.1522 7.16246L72.2424 7.14117C72.205 7.14965 72.1684 7.15817 72.1318 7.1667C72.1182 7.17012 72.1037 7.17267 72.0909 7.17604C71.9208 7.21607 71.6961 7.27733 71.5302 7.33099C71.5234 7.33354 71.5149 7.33609 71.5081 7.33865C71.4485 7.35733 71.3932 7.37525 71.3422 7.39225C71.2596 7.42033 71.1847 7.44585 71.1218 7.4697C71.0928 7.48078 71.0622 7.49185 71.0307 7.50462C70.9941 7.51906 70.9567 7.53356 70.9184 7.54888C70.9082 7.55312 70.8988 7.55654 70.8886 7.56077C70.8826 7.56333 70.8767 7.56501 70.8707 7.56756C70.8247 7.58548 70.7805 7.60248 70.7388 7.61948C70.5959 7.67738 70.4171 7.75993 70.2657 7.83401C70.2368 7.84845 70.2078 7.86209 70.1781 7.8774C70.1483 7.89272 70.1185 7.90803 70.0895 7.92253C70.0828 7.9259 70.0768 7.92932 70.07 7.93274C70.0445 7.94632 70.0189 7.95995 69.9934 7.97358C69.9866 7.97701 69.9798 7.98037 69.9738 7.98379C69.9041 8.02127 69.836 8.05869 69.7696 8.09698C69.7509 8.10806 69.7322 8.11827 69.7135 8.12935C69.6913 8.14211 69.6701 8.15487 69.648 8.1685C69.6428 8.17106 69.6386 8.17448 69.6335 8.17703L69.6283 8.17958L69.6241 8.18213C69.5203 8.24427 69.4216 8.30553 69.328 8.36597C69.322 8.36934 69.3161 8.37363 69.311 8.37787C69.2803 8.39829 69.2488 8.42045 69.2174 8.44174C69.1723 8.4715 69.128 8.50132 69.0871 8.52852C69.0021 8.58555 68.9068 8.65789 68.8123 8.7311C68.7936 8.74555 68.7741 8.75918 68.7553 8.77368C68.6038 8.88773 68.4566 9.00602 68.3307 9.1192C68.3282 9.12094 68.3256 9.12349 68.3239 9.12517C68.3153 9.13283 68.3069 9.14049 68.2992 9.14815C68.1988 9.23667 68.1009 9.32775 68.0048 9.42051C67.9265 9.49714 67.8525 9.57117 67.7861 9.64014C67.7555 9.67246 67.7232 9.70651 67.6908 9.74143C67.7138 9.71672 67.7376 9.69288 67.7614 9.66822C67.7878 9.64096 67.8142 9.61462 67.8414 9.58735C67.9001 9.52864 67.9589 9.47075 68.0176 9.41459C68.0465 9.38565 68.0763 9.35501 68.1077 9.32351C68.1265 9.30646 68.1461 9.29115 68.1647 9.27415C68.1299 9.30733 68.0941 9.34138 68.0575 9.37625C68.0235 9.41117 67.9895 9.44691 67.9571 9.48264C66.1863 11.3893 65.7379 13.6933 66.6229 16.3352C67.7129 19.5858 69.9083 21.0855 72.6875 22.9853C72.6917 22.9767 72.6951 22.9673 72.6994 22.9589C72.7887 22.9742 72.816 22.9793 73.01 23.0278C74.3885 23.381 77.588 24.2015 79.6872 22.6924C79.6983 22.6848 79.7093 22.6763 79.7204 22.6678C79.7596 22.6346 79.8004 22.6014 79.8404 22.5665C79.8225 22.5835 79.8055 22.6005 79.7868 22.6167C79.8378 22.5733 79.8906 22.5282 79.9459 22.4796C80.0327 22.4031 80.122 22.3213 80.2097 22.2396C80.219 22.2311 80.2284 22.2226 80.2378 22.2132C80.2471 22.2047 80.2565 22.1962 80.265 22.1877C80.3161 22.1409 80.3646 22.095 80.4105 22.0515C80.4335 22.0277 80.4565 22.0039 80.4794 21.98C80.4913 21.969 80.5024 21.9571 80.5135 21.946C80.5169 21.9426 80.5203 21.9392 80.5228 21.9358L80.5373 21.9213C80.5398 21.9179 80.5424 21.9154 80.5458 21.9119C80.6462 21.8081 80.7398 21.7077 80.8232 21.6132C80.859 21.5723 80.893 21.5324 80.9253 21.4932C80.9321 21.4855 80.9381 21.4787 80.9449 21.4702C80.9492 21.4651 80.9525 21.4608 80.9576 21.4557C81.0725 21.3204 81.1951 21.1578 81.304 21.0089C81.3125 20.9978 81.3202 20.9859 81.3287 20.9748C81.3329 20.9689 81.3372 20.9638 81.3406 20.9578C81.3508 20.9434 81.361 20.9297 81.3712 20.9161C81.3789 20.905 81.3874 20.894 81.3951 20.8829C81.3984 20.8786 81.401 20.8735 81.4044 20.8693C81.4291 20.8344 81.452 20.8012 81.4742 20.7697C81.509 20.7186 81.5448 20.6642 81.5805 20.6088C81.5763 20.6148 81.572 20.6208 81.5678 20.6267C81.481 20.745 81.3891 20.8531 81.2895 20.9536Z" fill="#134379"/>
</g>
</g>
</g>
</g>
<defs>
<clipPath id="clip0_204_3818">
<rect width="167" height="66" fill="white"/>
</clipPath>
</defs>
</svg>
